<?xml version="1.0" encoding="UTF-8" standalone="no"?>
<svg
   xmlns:dc="http://purl.org/dc/elements/1.1/"
   xmlns:cc="http://creativecommons.org/ns#"
   xmlns:rdf="http://www.w3.org/1999/02/22-rdf-syntax-ns#"
   xmlns:svg="http://www.w3.org/2000/svg"
   xmlns="http://www.w3.org/2000/svg"
   xmlns:sodipodi="http://sodipodi.sourceforge.net/DTD/sodipodi-0.dtd"
   xmlns:inkscape="http://www.inkscape.org/namespaces/inkscape"
   version="1.1"
   x="0px"
   y="0px"
   viewBox="0 0 74.900002 88"
   xml:space="preserve"
   id="svg1391"
   sodipodi:docname="noun_Dirty Socks_2559546.svg"
   width="74.900002"
   height="88"
   inkscape:version="0.92.5 (2060ec1f9f, 2020-04-08)"><metadata
     id="metadata1397"><rdf:RDF><cc:Work
         rdf:about=""><dc:format>image/svg+xml</dc:format><dc:type
           rdf:resource="http://purl.org/dc/dcmitype/StillImage" /><dc:title></dc:title></cc:Work></rdf:RDF></metadata><defs
     id="defs1395" /><sodipodi:namedview
     pagecolor="#ffffff"
     bordercolor="#666666"
     borderopacity="1"
     objecttolerance="10"
     gridtolerance="10"
     guidetolerance="10"
     inkscape:pageopacity="0"
     inkscape:pageshadow="2"
     inkscape:window-width="1920"
     inkscape:window-height="995"
     id="namedview1393"
     showgrid="false"
     inkscape:zoom="20.389817"
     inkscape:cx="49.284778"
     inkscape:cy="-1.1988979"
     inkscape:window-x="0"
     inkscape:window-y="0"
     inkscape:window-maximized="1"
     inkscape:current-layer="svg1391" /><path
     d="m 9.8602037,39.249015 c 0,-5.2 -1.9,-8.6 -3.5,-11.5 -1.3,-2.4 -2.5,-4.5 -2.5,-7.2 0,-2.7 1.1,-4.6 2.4,-6.9 1.7,-3 3.6,-6.2999996 3.6,-11.7999996 0,-1.00000004 -0.8,-1.90000004 -1.9,-1.90000004 -1.1,0 -1.9,0.8 -1.9,1.90000004 0,4.5 -1.6,7.2 -3.1,9.8999996 -1.4,2.5 -2.89999995,5.1 -2.89999995,8.8 0,3.7 1.49999995,6.4 2.89999995,9 1.6,2.8 3,5.5 3,9.7 0,1 0.8,1.9 1.9,1.9 1.1,0 2,-0.9 2,-1.9 z m 7.1000003,0 c 0,1 0.8,1.9 1.9,1.9 1.1,0 1.9,-0.8 1.9,-1.9 0,-5.2 -1.9,-8.6 -3.5,-11.5 -1.3,-2.4 -2.5,-4.5 -2.5,-7.2 0,-2.7 1.1,-4.6 2.4,-6.9 1.7,-3 3.6,-6.2999996 3.6,-11.7999996 0,-1.00000004 -0.8,-1.90000004 -1.9,-1.90000004 -1.1,0 -1.9,0.8 -1.9,1.90000004 0,4.5 -1.6,7.2 -3.1,9.8999996 -1.4,2.5 -2.9,5.1 -2.9,8.8 0,3.7 1.5,6.4 2.9,9 1.6,2.8 3.1,5.4 3.1,9.7 z m 10.8,0 c 0,1 0.8,1.9 1.9,1.9 1.1,0 1.9,-0.8 1.9,-1.9 0,-5.2 -1.9,-8.6 -3.5,-11.5 -1.3,-2.4 -2.5,-4.5 -2.5,-7.2 0,-2.7 1.1,-4.6 2.4,-6.9 1.7,-3 3.6,-6.2999996 3.6,-11.7999996 0,-1.00000004 -0.8,-1.90000004 -1.9,-1.90000004 -1.1,0 -1.9,0.8 -1.9,1.90000004 0,4.5 -1.6,7.2 -3.1,9.8999996 -1.4,2.5 -2.9,5.1 -2.9,8.8 0,3.7 1.5,6.4 2.9,9 1.7,2.8 3.1,5.4 3.1,9.7 z m 46.8,-11.6 c 0,-1 -0.8,-1.9 -1.9,-1.9 v 0 l -11,0.1 -0.1,-10 c 0,-1 -0.8,-1.9 -1.9,-1.9 v 0 l -20,0.1 c -0.5,0 -1,0.2 -1.3,0.6 -0.3,0.4 -0.5,0.8 -0.5,1.3 l 0.1,23.3 c 0,4.7 -2.4,6.3 -5,7.2 -2.6,1 -15.1,6.5 -16.3,7.1 -2.9,1 -5.3,3.1 -6.6,5.8 -1.4000003,2.8 -1.6000003,5.9 -0.6000003,8.9 1.6000003,4.8 6.2000003,7.9 11.1000003,7.9 0.4,0 0.8,0 1.2,-0.1 v 0 0 c 0,0 0,0 0.1,0 0,1.3 0.1,2.7 0.6,4 1.6,4.8 6.2,7.9 11.1,7.9 1.2,0 2.5,-0.2 3.7,-0.6 l 25.9,-8.7 c 5.7,-1.9 11.8,-7.1 11.8,-15.9 z m -3.7,11.2 -9.1,0.1 v -2.4 l 9.1,-0.1 z m -0.1,-9.3 v 3.2 l -9.1,0.1 v -3.2 z m -12.8,-2.5 -16.3,0.1 v -2.4 l 16.3,-0.1 z m -0.1,-9.4 v 3.2 l -16.3,0.1 v -3.2 z m -44.9,49.4 c -0.7,-2 -0.5,-4.1 0.4,-6 0.4,-0.9 1,-1.6 1.7,-2.3 l 4,13.5 c -2.7,-0.4 -5.1,-2.4 -6.1,-5.2 z m 10,5 v 0 l -4.5,-15.2 c 2.1,-0.9 13.5,-6 15.8,-6.9 1.9,-0.7 7.5,-2.8 7.5,-10.8 l -0.1,-8.4 16.3,-0.1 0.1,17 -12.3,5.3 c -0.9,0.4 -1.4,1.4 -1,2.3 l 3,8.5 z m 35.1,-20.3 c -0.2,6 -4.1,9.1 -6.9,10.6 l -2.3,-6.7 z m -32.1,27.1 c -0.4,-1.2 -0.5,-2.5 -0.3,-3.8 l 3.4,-1.1 3,10.2 c -2.8,-0.5 -5.2,-2.4 -6.1,-5.3 z m 38.1,-4.7 -2.3,-6.7 9.2,-4 c -0.2,6.1 -4.1,9.2 -6.9,10.7 z m -5.4,-9.4 c -0.9,0.4 -1.4,1.4 -1,2.3 l 3,8.5 -24.7,8.3 v 0 l -3.3,-11.1 17.5,-5.9 c 5.7,-1.9 11.8,-7.1 11.8,-15.9 l -0.2,-8.3 9.1,-0.1 0.1,16.9 z"
     id="path1385"
     style="fill:#f7c02e;fill-opacity:1"
     inkscape:connector-curvature="0" /></svg>