<?xml version="1.0" encoding="UTF-8" standalone="no"?>
<svg
   xmlns:dc="http://purl.org/dc/elements/1.1/"
   xmlns:cc="http://creativecommons.org/ns#"
   xmlns:rdf="http://www.w3.org/1999/02/22-rdf-syntax-ns#"
   xmlns:svg="http://www.w3.org/2000/svg"
   xmlns="http://www.w3.org/2000/svg"
   xmlns:sodipodi="http://sodipodi.sourceforge.net/DTD/sodipodi-0.dtd"
   xmlns:inkscape="http://www.inkscape.org/namespaces/inkscape"
   viewBox="0 0 60.034 60.015999"
   x="0px"
   y="0px"
   version="1.1"
   id="svg1629"
   sodipodi:docname="noun_Industrial Vacuum Cleaner_960542.svg"
   width="60.034"
   height="60.015999"
   inkscape:version="0.92.5 (2060ec1f9f, 2020-04-08)">
  <metadata
     id="metadata1635">
    <rdf:RDF>
      <cc:Work
         rdf:about="">
        <dc:format>image/svg+xml</dc:format>
        <dc:type
           rdf:resource="http://purl.org/dc/dcmitype/StillImage" />
        <dc:title>Vacuum Cleaners - Outline - 001 - Industrial Vacuum</dc:title>
      </cc:Work>
    </rdf:RDF>
  </metadata>
  <defs
     id="defs1633" />
  <sodipodi:namedview
     pagecolor="#ffffff"
     bordercolor="#666666"
     borderopacity="1"
     objecttolerance="10"
     gridtolerance="10"
     guidetolerance="10"
     inkscape:pageopacity="0"
     inkscape:pageshadow="2"
     inkscape:window-width="1920"
     inkscape:window-height="995"
     id="namedview1631"
     showgrid="false"
     inkscape:zoom="15.292363"
     inkscape:cx="39.388112"
     inkscape:cy="14.618191"
     inkscape:window-x="0"
     inkscape:window-y="0"
     inkscape:window-maximized="1"
     inkscape:current-layer="svg1629" />
  <title
     id="title1619">Vacuum Cleaners - Outline - 001 - Industrial Vacuum</title>
  <g
     data-name="01-Industrial Vacuum"
     id="g1623"
     style="fill:#f7c02e;fill-opacity:1"
     transform="translate(0,0.08998274)">
    <path
       d="M 59.75,3.42 A 4.52,4.52 0 0 0 55,0 1,1 0 0 0 54.62,0.08 l -24,10 -0.3,0.12 c -4.91,2 -7.37,3 -9.28,7.49 L 10.1,50.53 9.55,50.17 A 1,1 0 0 0 8.1,50.55 L 6.38,54 H 2 a 1,1 0 0 0 -1,0.76 l -1,4 A 1,1 0 0 0 1,60 h 14 a 1,1 0 0 0 1,-1.24 l -1,-4 A 1,1 0 0 0 14,54 H 12.62 L 12.9,53.45 A 1,1 0 0 0 12.56,52.17 L 11.83,51.68 22.92,18.39 c 1.55,-3.66 3.49,-4.45 8.16,-6.34 L 55.19,2 a 2.49,2.49 0 0 1 2.63,2 c 1.72,6.21 -8.09,23.87 -18.12,30 a 8.67,8.67 0 0 0 -1.7,-1.77 8,8 0 0 0 -15.92,0 C 18.4,35 18,39.77 18,43 h -1 a 1,1 0 0 0 0,2 h 1 v 12 a 1,1 0 0 0 1,1 h 3 v 1 a 1,1 0 0 0 2,0 v -1 h 12 v 1 a 1,1 0 0 0 2,0 v -1 h 3 a 1,1 0 0 0 1,-1 V 45 h 1 a 1,1 0 0 0 0,-2 H 42 A 18.19,18.19 0 0 0 40.71,35.73 C 50.83,29.52 61.82,10.92 59.75,3.42 Z M 13.22,56 l 0.5,2 H 2.28 l 0.5,-2 H 7 a 1,1 0 0 0 0.89,-0.55 l 1.49,-3 1.32,0.88 -0.61,1.21 A 1,1 0 0 0 11,56 Z M 30,27 A 6,6 0 0 1 35.63,30.93 15.34,15.34 0 0 0 30,30 15.34,15.34 0 0 0 24.37,30.93 6,6 0 0 1 30,27 Z m 0,5 c 9.29,0 9.95,6.48 10,11 H 20 C 20.05,38.48 20.71,32 30,32 Z M 40,56 H 20 V 45 h 20 z"
       id="path1621"
       style="fill:#f7c02e;fill-opacity:1"
       inkscape:connector-curvature="0" />
  </g>
</svg>
