<?xml version="1.0" encoding="UTF-8" standalone="no"?>
<svg
   xmlns:dc="http://purl.org/dc/elements/1.1/"
   xmlns:cc="http://creativecommons.org/ns#"
   xmlns:rdf="http://www.w3.org/1999/02/22-rdf-syntax-ns#"
   xmlns:svg="http://www.w3.org/2000/svg"
   xmlns="http://www.w3.org/2000/svg"
   xmlns:sodipodi="http://sodipodi.sourceforge.net/DTD/sodipodi-0.dtd"
   xmlns:inkscape="http://www.inkscape.org/namespaces/inkscape"
   version="1.1"
   x="0px"
   y="0px"
   viewBox="0 0 50 50"
   enable-background="new 0 0 100 100"
   xml:space="preserve"
   id="svg1981"
   sodipodi:docname="noun_savings_323392.svg"
   width="50"
   height="50"
   inkscape:version="0.92.5 (2060ec1f9f, 2020-04-08)"><metadata
     id="metadata1987"><rdf:RDF><cc:Work
         rdf:about=""><dc:format>image/svg+xml</dc:format><dc:type
           rdf:resource="http://purl.org/dc/dcmitype/StillImage" /><dc:title></dc:title></cc:Work></rdf:RDF></metadata><defs
     id="defs1985" /><sodipodi:namedview
     pagecolor="#ffffff"
     bordercolor="#666666"
     borderopacity="1"
     objecttolerance="10"
     gridtolerance="10"
     guidetolerance="10"
     inkscape:pageopacity="0"
     inkscape:pageshadow="2"
     inkscape:window-width="1920"
     inkscape:window-height="995"
     id="namedview1983"
     showgrid="true"
     inkscape:zoom="18.350835"
     inkscape:cx="29.994314"
     inkscape:cy="13.047932"
     inkscape:window-x="0"
     inkscape:window-y="0"
     inkscape:window-maximized="1"
     inkscape:current-layer="svg1981"
     showguides="true"><inkscape:grid
       type="xygrid"
       id="grid7" /></sodipodi:namedview><path
     d="m 45.399255,36.917391 h -2.923126 c 0.576264,-2.727508 0.882475,-5.598884 0.882475,-8.529349 0,-15.422193 -8.277292,-27.96872785 -18.451733,-27.96872785 -10.175007,0 -18.4522988,12.54653485 -18.4522988,27.96872785 0,2.929608 0.3067755,5.800985 0.8824741,8.529349 H 4.413921 c -2.3864091,0 -4.3276263,2.942454 -4.3276263,6.558007 0,3.617266 1.9417822,6.55972 4.3276263,6.55972 h 9.303267 0.004 22.425102 c 0.01073,8.56e-4 0.0209,0.0051 0.03164,0.0051 0.01243,0 0.02542,-0.0043 0.03786,-0.0051 h 9.183495 c 2.386408,0 4.327626,-2.943311 4.327626,-6.55972 0,-3.615553 -1.941782,-6.558007 -4.327626,-6.558007 z M 24.96467,2.7465742 c 8.928695,0 16.134076,12.1075488 16.134076,25.6414678 0,6.965635 -1.839574,14.957639 -5.244049,19.611958 H 25 c 0.491519,-0.185831 1.037363,-0.691052 1.037363,-1.494318 v -4.665076 c 1.787548,-0.139587 3.368883,-1.132965 4.354181,-2.756624 0.840666,-1.383878 1.249136,-3.197649 1.180775,-5.243494 -0.149151,-4.534428 -2.93386,-6.077589 -5.534956,-7.104365 v -8.304126 c 2.038392,0.441025 3.451368,2.266786 3.541197,2.38582 0.467226,0.625143 1.17908,0.559203 1.592634,-0.145582 0.414119,-0.706497 0.372312,-1.789793 -0.09379,-2.418361 -0.115253,-0.155858 -2.127655,-2.791735 -5.040047,-3.264446 v -3.165964 c 0,-0.945422 -0.506207,-1.712721 -1.129928,-1.712721 -0.623721,0 -1.129928,0.767299 -1.129928,1.712721 v 3.273866 c -0.500559,0.130166 -1.013546,0.321991 -1.541788,0.621717 -1.871161,1.061031 -3.024254,3.683206 -2.936119,6.677898 0.09434,3.218202 1.577945,5.812118 3.8717,6.770385 0.197737,0.08307 0.40056,0.161852 0.606207,0.241493 v 8.61156 c -1.374558,-0.553209 -2.775105,-1.608245 -3.628201,-2.858531 -0.448016,-0.657685 -1.164391,-0.638845 -1.597719,0.04196 -0.433892,0.67995 -0.421463,1.764958 0.02769,2.421787 1.258741,1.843743 3.262669,3.308119 5.198237,3.922986 l 0.16348,4.929848 C 23.967608,47.281258 24.507917,47.814169 25,48 H 13.536806 C 10.133461,43.343114 8.7144293,35.351964 8.7144293,28.388042 8.7144293,14.854123 16.036539,2.7465742 24.96467,2.7465742 Z M 23.776941,25.869486 c -0.0017,-8.56e-4 -0.004,-0.0017 -0.0057,-0.0026 -1.336141,-0.558347 -2.164379,-1.912253 -2.214661,-3.621548 -0.0435,-1.483216 0.533326,-2.786596 1.470602,-3.31754 0.25367,-0.143868 0.503383,-0.251769 0.749707,-0.339975 z m 2.259858,4.423958 c 1.933873,0.839233 3.214646,1.804351 3.278488,3.720029 0.03729,1.139815 -0.154235,2.03985 -0.586998,2.752342 -0.55988,0.9223 -1.555347,1.521752 -2.69149,1.645068 z M 2.3467168,43.475398 c 0,-1.728135 0.9276713,-3.132566 2.0677692,-3.132566 H 8.2279951 C 8.9302457,42.593347 9.9186587,46.092885 11,48 L 4.4281093,48.01288 C 3.2874488,48.01508 2.3467168,45.204386 2.3467168,43.475395 Z M 45.480995,47.985636 38.410595,48 c 1.081906,-1.907971 2.4729,-5.406653 3.175151,-7.657168 h 3.813509 c 1.140662,0 1.962393,1.88585 2.067769,3.132566 0.138353,1.636877 -0.845933,4.507922 -1.986029,4.510238 z"
     id="path1975"
     style="fill:#f7c02e;fill-opacity:1;stroke-width:0.69556665"
     inkscape:connector-curvature="0"
     sodipodi:nodetypes="ccssscssscccscssscssccscccccccccsssccccccccccsccsscccccccccccasccssascssas" /></svg>