<?xml version="1.0" encoding="UTF-8" standalone="no"?>
<svg
   xmlns:dc="http://purl.org/dc/elements/1.1/"
   xmlns:cc="http://creativecommons.org/ns#"
   xmlns:rdf="http://www.w3.org/1999/02/22-rdf-syntax-ns#"
   xmlns:svg="http://www.w3.org/2000/svg"
   xmlns="http://www.w3.org/2000/svg"
   xmlns:sodipodi="http://sodipodi.sourceforge.net/DTD/sodipodi-0.dtd"
   xmlns:inkscape="http://www.inkscape.org/namespaces/inkscape"
   version="1.1"
   x="0px"
   y="0px"
   viewBox="0 0 50 45"
   xml:space="preserve"
   id="svg12"
   sodipodi:docname="noun_Sofa_3893479.svg"
   width="50"
   height="45"
   inkscape:version="0.92.5 (2060ec1f9f, 2020-04-08)"><metadata
     id="metadata18"><rdf:RDF><cc:Work
         rdf:about=""><dc:format>image/svg+xml</dc:format><dc:type
           rdf:resource="http://purl.org/dc/dcmitype/StillImage" /><dc:title></dc:title></cc:Work></rdf:RDF></metadata><defs
     id="defs16" /><sodipodi:namedview
     pagecolor="#ffffff"
     bordercolor="#666666"
     borderopacity="1"
     objecttolerance="10"
     gridtolerance="10"
     guidetolerance="10"
     inkscape:pageopacity="0"
     inkscape:pageshadow="2"
     inkscape:window-width="1920"
     inkscape:window-height="995"
     id="namedview14"
     showgrid="true"
     showguides="true"
     inkscape:zoom="10.680141"
     inkscape:cx="5.2605988"
     inkscape:cy="26.436344"
     inkscape:window-x="0"
     inkscape:window-y="0"
     inkscape:window-maximized="1"
     inkscape:current-layer="svg12"><inkscape:grid
       type="xygrid"
       id="grid830" /></sodipodi:namedview><g
     id="g6"
     transform="matrix(0.5735651,0,0,0.70335882,-3.9833085,-11.264069)"
     style="fill:#f7c02e;fill-opacity:1"><g
       id="g4"
       style="fill:#f7c02e;fill-opacity:1"><path
         d="m 87.5,33 -3.842001,0.07568 0.05342,-5.022742 C 83.782679,21.353187 78.6,16 71.9,16 H 61.1 C 56.5,16 52.5,18.5 50.5,22.3 48.4,18.6 44.5,16 39.9,16 H 29.1 c -6.7,0 -11.833331,5.376782 -11.753705,12.076467 l 0.05942,4.99921 L 13.5,33 C 9.9010158,32.930266 7.0020216,35.7 7,39.1 L 6.9783565,75.5 C 6.97687,78 9.1,80 11.8,80 h 77.5 c 2.6,0 4.8,-2 4.8,-4.5 V 39.1 C 94,35.7 91.1,33 87.5,33 Z M 78.427555,51.558419 H 53.075523 l 0.01604,-5.686997 h 25.335993 z m -30.325403,0 H 22.636155 V 45.871422 H 48.217016 Z M 61.038783,20.281288 h 11.167302 c 5,0 6.408309,2.71931 6.327059,7.718871 l -0.105589,6.497267 v 7.108747 H 53.05075 L 52.857037,28.199841 c -0.07224,-4.999654 3.181746,-7.918553 8.181746,-7.918553 z M 22.5303,27.966879 c -0.08104,-4.999563 1.528898,-7.759797 6.528889,-7.752151 l 10.881622,0.01664 c 4.999991,0.0076 8.094752,2.802087 8.079718,7.802072 l -0.04081,13.572733 -25.343563,0 0,-7.108747 z m 66.398527,46.151992 c 0,0.9 -0.800001,1.70098 -1.8,1.7 l -73.489133,-0.07201 c -0.999999,-9.8e-4 -1.498413,0.158941 -1.496992,-0.841058 l 0.0505,-35.523408 c 0.0026,-1.799999 -0.189177,-2.058901 1.710808,-2.052769 l 3.5017,0.0113 v 9.088477 6.550767 0.637494 0 c 1e-6,0.699999 0.119137,2.106004 0.719137,2.206004 h 0.230863 0.559722 -0.790585 v 0 h 32.407008 31.982574 v 0 c 0.8,0 1.233492,-1.625445 1.168134,-2.423668 l -0.02456,-0.3 v -6.711766 -9.047309 l 3.697712,-0.04661 c 1.899772,-0.02395 1.573116,-0.151754 1.573116,1.636479 z"
         id="path2"
         inkscape:connector-curvature="0"
         style="fill:#f7c02e;fill-opacity:1"
         sodipodi:nodetypes="scssscssscsssssscsccccccccccssscccsssssscccssssssscccccccccccccscccsss" /></g></g></svg>