<?xml version="1.0" encoding="UTF-8" standalone="no"?>
<svg
   xmlns:dc="http://purl.org/dc/elements/1.1/"
   xmlns:cc="http://creativecommons.org/ns#"
   xmlns:rdf="http://www.w3.org/1999/02/22-rdf-syntax-ns#"
   xmlns:svg="http://www.w3.org/2000/svg"
   xmlns="http://www.w3.org/2000/svg"
   xmlns:sodipodi="http://sodipodi.sourceforge.net/DTD/sodipodi-0.dtd"
   xmlns:inkscape="http://www.inkscape.org/namespaces/inkscape"
   xml:space="preserve"
   version="1.1"
   style="clip-rule:evenodd;fill-rule:evenodd;image-rendering:optimizeQuality;shape-rendering:geometricPrecision;text-rendering:geometricPrecision"
   viewBox="0 0 100 100"
   x="0px"
   y="0px"
   id="svg3147"
   sodipodi:docname="noun_vacuum_3740006.svg"
   width="100"
   height="100"
   inkscape:version="0.92.5 (2060ec1f9f, 2020-04-08)"><metadata
     id="metadata3151"><rdf:RDF><cc:Work
         rdf:about=""><dc:format>image/svg+xml</dc:format><dc:type
           rdf:resource="http://purl.org/dc/dcmitype/StillImage" /><dc:title></dc:title></cc:Work></rdf:RDF></metadata><sodipodi:namedview
     pagecolor="#ffffff"
     bordercolor="#666666"
     borderopacity="1"
     objecttolerance="10"
     gridtolerance="10"
     guidetolerance="10"
     inkscape:pageopacity="0"
     inkscape:pageshadow="2"
     inkscape:window-width="1920"
     inkscape:window-height="995"
     id="namedview3149"
     showgrid="false"
     inkscape:zoom="8.6697546"
     inkscape:cx="46.865266"
     inkscape:cy="69.355218"
     inkscape:window-x="0"
     inkscape:window-y="0"
     inkscape:window-maximized="1"
     inkscape:current-layer="svg3147" /><defs
     id="defs3137"><style
       type="text/css"
       id="style3135">
   
    .fil0 {fill:black;fill-rule:nonzero}
   
  </style></defs><g
     id="g3141"
     style="fill:#f7c02e;fill-opacity:1"
     transform="matrix(0.13457398,0,0,0.13757769,-6.807726,-8.2344864)"><path
       class="fil0"
       d="m 689.02,447.77 h -63.1 v 77.62 c 0,11.14 -9.02,20.16 -20.15,20.16 -121.63,0 -243.25,0 -364.88,0 -11.13,0 -20.15,-9.02 -20.15,-20.16 v -77.62 h -62.72 c -36.08,0 -65.69,29.61 -65.69,65.69 v 119.35 h 662 V 513.08 c 0,-35.87 -29.44,-65.31 -65.31,-65.31 z M 272.83,764.8 c 0,26.54 -40.32,26.54 -40.32,0 v -42.1 c 0,-26.54 40.32,-26.54 40.32,0 z m -113.77,0 c 0,26.54 -40.32,26.54 -40.32,0 v -42.1 c 0,-26.54 40.32,-26.54 40.32,0 z m 568.86,0 c 0,26.54 -40.32,26.54 -40.32,0 v -42.1 c 0,-26.54 40.32,-26.54 40.32,0 z m -227.55,0 c 0,26.54 -40.32,26.54 -40.32,0 v -42.1 c 0,-26.54 40.32,-26.54 40.32,0 z m 113.77,0 c 0,26.54 -40.32,26.54 -40.32,0 v -42.1 c 0,-26.54 40.32,-26.54 40.32,0 z m -227.54,0 c 0,26.54 -40.32,26.54 -40.32,0 v -42.1 c 0,-26.54 40.32,-26.54 40.32,0 z M 481.67,237.41 H 356.64 V 316.5 H 481.67 Z M 356.64,197.09 H 481.67 V 102.27 H 356.64 Z M 316.33,316.5 V 82.11 c 0,-11.13 9.02,-20.16 20.16,-20.16 h 165.34 c 11.13,0 20.16,9.03 20.16,20.16 V 316.5 h 28.11 v 0.04 c 6.78,0.01 13.38,3.44 17.17,9.64 L 617,407.45 h 72.02 c 58.14,0 105.63,47.5 105.63,105.63 v 139.89 c 0,11.14 -9.03,20.16 -20.16,20.16 H 72.17 c -11.13,0 -20.16,-9.02 -20.16,-20.16 V 513.46 c 0,-58.35 47.66,-106.01 106.01,-106.01 h 71.64 l 48.98,-80.05 c 7.76,-13.76 20.65,-10.9 37.69,-10.9 z M 475.5,505.23 v -21.94 c 0,-26.54 40.32,-26.54 40.32,0 v 21.94 h 69.79 V 447.77 H 261.05 v 57.46 h 69.79 v -21.94 c 0,-26.54 40.32,-26.54 40.32,0 v 21.94 z m 94.35,-97.78 -30.99,-50.63 H 307.8 l -30.99,50.63 z"
       id="path3139"
       style="fill:#f7c02e;fill-opacity:1;fill-rule:nonzero"
       inkscape:connector-curvature="0" /></g></svg>