<?xml version="1.0" encoding="UTF-8" standalone="no"?>
<svg
   xmlns:dc="http://purl.org/dc/elements/1.1/"
   xmlns:cc="http://creativecommons.org/ns#"
   xmlns:rdf="http://www.w3.org/1999/02/22-rdf-syntax-ns#"
   xmlns:svg="http://www.w3.org/2000/svg"
   xmlns="http://www.w3.org/2000/svg"
   xmlns:sodipodi="http://sodipodi.sourceforge.net/DTD/sodipodi-0.dtd"
   xmlns:inkscape="http://www.inkscape.org/namespaces/inkscape"
   version="1.1"
   x="0px"
   y="0px"
   viewBox="0 0 40 50"
   enable-background="new 0 0 100 100"
   xml:space="preserve"
   id="svg14"
   sodipodi:docname="noun_waterproof_456617.svg"
   width="40"
   height="50"
   inkscape:version="0.92.5 (2060ec1f9f, 2020-04-08)"><metadata
     id="metadata20"><rdf:RDF><cc:Work
         rdf:about=""><dc:format>image/svg+xml</dc:format><dc:type
           rdf:resource="http://purl.org/dc/dcmitype/StillImage" /><dc:title /></cc:Work></rdf:RDF></metadata><defs
     id="defs18" /><sodipodi:namedview
     pagecolor="#ffffff"
     bordercolor="#666666"
     borderopacity="1"
     objecttolerance="10"
     gridtolerance="10"
     guidetolerance="10"
     inkscape:pageopacity="0"
     inkscape:pageshadow="2"
     inkscape:window-width="1920"
     inkscape:window-height="995"
     id="namedview16"
     showgrid="true"
     inkscape:zoom="15.104"
     inkscape:cx="16.131078"
     inkscape:cy="26.636183"
     inkscape:window-x="0"
     inkscape:window-y="0"
     inkscape:window-maximized="1"
     inkscape:current-layer="svg14"
     showguides="true"><inkscape:grid
       type="xygrid"
       id="grid815" /></sodipodi:namedview><path
     d="m 28.376222,9.2424281 c 2.364209,0 4.288515,-1.5065629 4.288515,-3.3588097 0,-1.4131192 -2.140232,-4.0897335 -3.061029,-5.17494017 -0.273018,-0.32217969 -0.73488,-0.5153729 -1.228216,-0.5153729 -0.493339,0 -0.955201,0.19376643 -1.228219,0.5153729 -0.920798,1.08578007 -3.061029,3.76182097 -3.061029,5.17494017 7.32e-4,1.8522468 1.924306,3.3588097 4.289978,3.3588097 z m 0.09363,-7.0491196 C 29.242065,3.2567308 30.626403,5.6697946 30.641773,6 c 0,0.5790064 -1.463006,0.8711429 -2.265551,0.9338556 C 27.608642,6.993836 26.134079,6.57614 26.134079,6 26.149449,5.6680748 27.697644,3.2573042 28.469854,2.1933085 Z"
     id="path2"
     inkscape:connector-curvature="0"
     style="fill:#f7c02e;fill-opacity:1;stroke-width:0.64777273"
     sodipodi:nodetypes="sscsccsccscc" /><path
     d="m 18.584883,18.051433 c 2.364209,0 4.288515,-1.90507 4.288515,-3.756744 0,-1.413694 -2.140232,-4.090308 -3.061028,-5.1749413 -0.273752,-0.3221798 -0.73415,-0.5159463 -1.227487,-0.5159463 -0.494069,0 -0.955198,0.1937665 -1.228218,0.5159463 -0.920797,1.0852063 -3.06176,3.7618213 -3.06176,5.1749413 7.33e-4,1.851674 1.925038,3.756744 4.289978,3.756744 z M 18.561475,11 c 0.771479,1.063422 2.027074,2.669794 2.043176,3 0,0.579008 0.02665,2 -2.019768,2.187039 C 16.719711,16.357512 16.6112,14.826306 16.6112,14.250165 16.62803,13.91824 17.976592,11.619244 18.561475,11 Z"
     id="path4"
     inkscape:connector-curvature="0"
     style="fill:#f7c02e;fill-opacity:1;stroke-width:0.64777273"
     sodipodi:nodetypes="sscsccsccscc" /><path
     d="m 31.885938,12.582321 c -0.920796,1.085205 -3.061029,3.761821 -3.061029,5.174939 0,1.851673 1.924306,3.358809 4.288515,3.358809 2.36421,0 4.288514,-1.507136 4.288514,-3.358809 0,-1.413693 -2.140231,-4.090306 -3.061028,-5.174939 -0.273019,-0.322181 -0.73488,-0.515373 -1.228218,-0.515373 -0.493337,0 -0.953735,0.193192 -1.226754,0.515373 z M 35.250233,18 c 0,0.579006 -0.957617,1 -2.277257,1.111799 C 31.997094,19.194475 31,18.28945 31,17.71331 31.01537,17.381385 32.22779,15.063995 33,14 c 0.772211,1.063995 2.234862,3.669795 2.250233,4 z"
     id="path6"
     inkscape:connector-curvature="0"
     style="fill:#f7c02e;fill-opacity:1;stroke-width:0.64777273"
     sodipodi:nodetypes="cssscsccsccc" /><path
     d="m 39.911807,35.66346 c -0.06295,-8.569294 -8.968625,-15.525969 -19.906202,-15.525969 -10.9763716,0 -19.90620169,6.724509 -19.90620169,15.336224 0,0.63748 0.1445154,1.505692 0.95917929,1.505692 0.8139322,0 0.9825876,-0.774006 0.9825876,-1.41206 0,-1.361525 2.2897133,-2.568836 4.0464014,-2.568836 1.7200902,0 3.8913144,1.129827 3.8913144,2.489059 0,0.63748 0.168655,1.435468 0.982587,1.435468 0.813932,0 1.123036,-0.610152 1.123036,-1.248205 0,-1.359232 1.516533,-2.606098 3.235892,-2.606098 1.750832,0 3.789761,1.203113 3.690187,2.529376 L 19,35.739131 v 0 V 45 c 0,1.373564 -1.759051,3.111413 -3.486461,3.111413 -1.720088,0 -4.032494,-1.55117 -4.032494,-2.910974 0,-0.636908 -0.261555,-1.060942 -1.076219,-1.060942 -0.8146638,0 -1.0528111,0.423461 -1.0528111,1.060942 0,2.633044 2.7214031,4.774795 6.0678921,4.774795 C 18.772986,49.975234 21,47.64795 21,45 v -9.448704 c 0,-1.352928 1.805352,-2.529377 3.573751,-2.529377 1.72009,0 3.494112,1.387314 3.494112,2.746546 0,0.63748 0.121839,1.224797 0.935772,1.224797 0.814664,0 0.982587,-0.539928 0.982587,-1.177981 0,-1.359232 2.078324,-2.81677 3.798415,-2.81677 1.757419,0 4.22421,1.075139 4.22421,2.436664 0,0.63748 0.212534,1.550514 0.947498,1.55263 l 0.04363,1.25e-4 c 0.773441,0.0022 0.917678,-0.595262 0.917678,-1.233316 -0.0022,-0.03096 -0.0037,-0.06134 -0.0058,-0.09114 z m -6.081801,-4.646956 c -1.833542,0 -3.479706,0.643786 -4.593006,1.659053 -1.113302,-1.015267 -2.759463,-1.659053 -4.593007,-1.659053 -1.849645,0 -3.509716,0.640919 -4.630336,1.64988 -1.123549,-1.008961 -2.790207,-1.64988 -4.64644,-1.64988 -1.833544,0 -3.479707,0.643786 -4.593007,1.659053 C 9.660909,31.66029 8.0140143,31.016504 6.1812033,31.016504 5.417044,31.016504 3.2813469,31.388568 2.6657377,32 4.9955449,26.830792 12.62363,22.173531 19.99806,22.173531 c 7.374429,0 15.030773,4.657834 17.361312,9.826469 -0.54758,-0.376778 -2.765206,-0.983496 -3.529366,-0.983496 z"
     id="path8"
     inkscape:connector-curvature="0"
     style="fill:#f7c02e;fill-opacity:1;stroke-width:0.64777273"
     sodipodi:nodetypes="csssssssssscccsssssccsssssssscccscscscscscs" /></svg>