<?xml version="1.0" encoding="UTF-8" standalone="no"?>
<svg
   xmlns:dc="http://purl.org/dc/elements/1.1/"
   xmlns:cc="http://creativecommons.org/ns#"
   xmlns:rdf="http://www.w3.org/1999/02/22-rdf-syntax-ns#"
   xmlns:svg="http://www.w3.org/2000/svg"
   xmlns="http://www.w3.org/2000/svg"
   xmlns:sodipodi="http://sodipodi.sourceforge.net/DTD/sodipodi-0.dtd"
   xmlns:inkscape="http://www.inkscape.org/namespaces/inkscape"
   data-name="Layer 3"
   viewBox="0 0 45 50"
   x="0px"
   y="0px"
   version="1.1"
   id="svg10"
   sodipodi:docname="noun_carpet_2374633.svg"
   width="45"
   height="50"
   inkscape:version="0.92.5 (2060ec1f9f, 2020-04-08)">
  <metadata
     id="metadata16">
    <rdf:RDF>
      <cc:Work
         rdf:about="">
        <dc:format>image/svg+xml</dc:format>
        <dc:type
           rdf:resource="http://purl.org/dc/dcmitype/StillImage" />
        <dc:title>Carpet</dc:title>
      </cc:Work>
    </rdf:RDF>
  </metadata>
  <defs
     id="defs14" />
  <sodipodi:namedview
     pagecolor="#ffffff"
     bordercolor="#666666"
     borderopacity="1"
     objecttolerance="10"
     gridtolerance="10"
     guidetolerance="10"
     inkscape:pageopacity="0"
     inkscape:pageshadow="2"
     inkscape:window-width="773"
     inkscape:window-height="420"
     id="namedview12"
     showgrid="true"
     showguides="false"
     inkscape:zoom="5.6568545"
     inkscape:cx="19.272299"
     inkscape:cy="24.198101"
     inkscape:window-x="622"
     inkscape:window-y="434"
     inkscape:window-maximized="0"
     inkscape:current-layer="svg10">
    <inkscape:grid
       type="xygrid"
       id="grid18" />
  </sodipodi:namedview>
  <title
     id="title2">Carpet</title>
  <path
     d="M 0.98774992,49.977728 C 1.8751619,49.977728 2.000001,49.613852 2,49 v -7 h 8 v 6.882813 c 5.34e-4,1.481597 2.000534,1.489409 2,0.0078 V 42 h 9 l -0.0035,6.860335 c -7.56e-4,1.481966 2.002347,1.544466 2.002664,0.0625 L 23,42 h 9 l 0.01319,6.899397 c 0.0028,1.481966 2.007158,1.521575 2.001595,0.03961 L 34,42 h 9 v 7 c -0.0013,1.482872 1.987821,1.382269 1.989131,-0.100603 V 1.1059386 C 44.987831,-0.37512174 42.998692,-0.48106034 43,1 v 7 h -9 l 0.0163,-6.8784364 c 0.0035,-1.48196378 -2.008263,-1.49759139 -2.010478,-0.015626 L 32,8 h -9 l 0.0072,-6.8566169 c 0.0016,-1.48196639 -2.025743,-1.52492713 -2.020636,-0.042965 L 21,8 H 12 V 1.1328125 C 11.999466,-0.34878482 9.9994657,-0.36784622 10,1.1137511 V 8 H 2 L 2.0564552,1.2175345 C 2.0687902,-0.26438132 -0.00127984,-0.37602851 -0.00127984,1.1059386 V 48.899397 c -9.6e-7,0.613852 0.10161774,1.078331 0.98902976,1.078331 z M 2,10 H 43 V 40 H 2 Z"
     id="path4"
     inkscape:connector-curvature="0"
     style="fill:#ffcc00;stroke-width:0.66819155"
     sodipodi:nodetypes="scccccccssccssccccccccssccssccccccsscsccccc" />
</svg>
