<?xml version="1.0" encoding="UTF-8" standalone="no"?>
<svg
   xmlns:dc="http://purl.org/dc/elements/1.1/"
   xmlns:cc="http://creativecommons.org/ns#"
   xmlns:rdf="http://www.w3.org/1999/02/22-rdf-syntax-ns#"
   xmlns:svg="http://www.w3.org/2000/svg"
   xmlns="http://www.w3.org/2000/svg"
   xmlns:sodipodi="http://sodipodi.sourceforge.net/DTD/sodipodi-0.dtd"
   xmlns:inkscape="http://www.inkscape.org/namespaces/inkscape"
   version="1.1"
   x="0px"
   y="0px"
   viewBox="0 0 58 50"
   enable-background="new 0 0 64 64"
   xml:space="preserve"
   id="svg1560"
   sodipodi:docname="noun_hotel cleaning_2631965.svg"
   width="58"
   height="50"
   inkscape:version="0.92.5 (2060ec1f9f, 2020-04-08)"><metadata
     id="metadata1566"><rdf:RDF><cc:Work
         rdf:about=""><dc:format>image/svg+xml</dc:format><dc:type
           rdf:resource="http://purl.org/dc/dcmitype/StillImage" /><dc:title></dc:title></cc:Work></rdf:RDF></metadata><defs
     id="defs1564" /><sodipodi:namedview
     pagecolor="#ffffff"
     bordercolor="#666666"
     borderopacity="1"
     objecttolerance="10"
     gridtolerance="10"
     guidetolerance="10"
     inkscape:pageopacity="0"
     inkscape:pageshadow="2"
     inkscape:window-width="1920"
     inkscape:window-height="995"
     id="namedview1562"
     showgrid="false"
     inkscape:zoom="20.275"
     inkscape:cx="38.358164"
     inkscape:cy="42.440288"
     inkscape:window-x="0"
     inkscape:window-y="0"
     inkscape:window-maximized="1"
     inkscape:current-layer="svg1560" /><g
     id="g1554"
     style="fill:#f7c02e;fill-opacity:1"
     transform="translate(-2.4660912,-10.024661)"><g
       id="g1552"
       style="fill:#f7c02e;fill-opacity:1"><path
         d="m 6.5,20 c 0,0.552734 0.4477539,1 1,1 0.5522461,0 1,-0.447266 1,-1 0,-1.654297 1.3457031,-3 3,-3 0.552246,0 1,-0.447266 1,-1 0,-0.552734 -0.447754,-1 -1,-1 -1.6542969,0 -3,-1.345703 -3,-3 0,-0.552734 -0.4477539,-1 -1,-1 -0.5522461,0 -1,0.447266 -1,1 0,1.654297 -1.3457031,3 -3,3 -0.5522461,0 -1,0.447266 -1,1 0,0.552734 0.4477539,1 1,1 1.6542969,0 3,1.345703 3,3 z m 1,-5.00293 C 7.7851563,15.376953 8.1235352,15.714844 8.5029297,16 8.1235352,16.285156 7.7851563,16.623047 7.5,17.00293 7.2148438,16.623047 6.8764648,16.285156 6.4970703,16 6.8764648,15.714844 7.2148438,15.376953 7.5,14.99707 Z"
         id="path1500"
         style="fill:#f7c02e;fill-opacity:1"
         inkscape:connector-curvature="0" /><path
         d="m 59.5,47 c -1.654297,0 -3,-1.345703 -3,-3 0,-0.552734 -0.447754,-1 -1,-1 -0.552246,0 -1,0.447266 -1,1 0,1.654297 -1.345703,3 -3,3 -0.552246,0 -1,0.447266 -1,1 0,0.552734 0.447754,1 1,1 1.654297,0 3,1.345703 3,3 0,0.552734 0.447754,1 1,1 0.552246,0 1,-0.447266 1,-1 0,-1.654297 1.345703,-3 3,-3 0.552246,0 1,-0.447266 1,-1 0,-0.552734 -0.447754,-1 -1,-1 z m -4,2.00293 C 55.214844,48.623047 54.876465,48.285156 54.49707,48 54.876465,47.714844 55.214844,47.376953 55.5,46.99707 55.785156,47.376953 56.123535,47.714844 56.50293,48 56.123535,48.285156 55.785156,48.623047 55.5,49.00293 Z"
         id="path1502"
         style="fill:#f7c02e;fill-opacity:1"
         inkscape:connector-curvature="0" /><path
         d="M 51,54 H 48 V 25 c 0,-0.552734 -0.447754,-1 -1,-1 h -2 v -5 c 0,-0.552734 -0.447754,-1 -1,-1 h -2 v -2 h 2 c 0.552246,0 1,-0.447266 1,-1 v -4 c 0,-0.552734 -0.447754,-1 -1,-1 H 26 c -0.552246,0 -1,0.447266 -1,1 v 4 c 0,0.552734 0.447754,1 1,1 h 2 v 2 h -2 c -0.552246,0 -1,0.447266 -1,1 v 5 H 9 C 8.4477539,24 8,24.447266 8,25 V 54 H 5 c -0.5522461,0 -1,0.447266 -1,1 v 4 c 0,0.552734 0.4477539,1 1,1 h 46 c 0.552246,0 1,-0.447266 1,-1 v -4 c 0,-0.552734 -0.447754,-1 -1,-1 z M 27,12 h 16 v 2 H 41 29 27 Z m 3,4 h 10 v 2 H 30 Z m -3,4 h 2 12 2 v 4 h -3 v -2 c 0,-0.552734 -0.447754,-1 -1,-1 -0.552246,0 -1,0.447266 -1,1 v 2 h -2 v -2 c 0,-0.552734 -0.447754,-1 -1,-1 -0.552246,0 -1,0.447266 -1,1 v 2 h -2 v -2 c 0,-0.552734 -0.447754,-1 -1,-1 -0.552246,0 -1,0.447266 -1,1 v 2 h -3 z m -17,6 h 16 18 2 V 54 H 35 v -7 c 0,-0.552734 -0.447754,-1 -1,-1 h -6 -6 c -0.552246,0 -1,0.447266 -1,1 v 7 H 10 Z m 13,28 v -6 h 4 v 6 z m 6,-6 h 4 v 6 H 29 Z M 50,58 H 6 v -2 h 3 13 6 6 13 3 z"
         id="path1504"
         style="fill:#f7c02e;fill-opacity:1"
         inkscape:connector-curvature="0" /><path
         d="m 15,27 c -0.552246,0 -1,0.447266 -1,1 v 2.857422 c 0,0.552734 0.447754,1 1,1 0.552246,0 1,-0.447266 1,-1 V 28 c 0,-0.552734 -0.447754,-1 -1,-1 z"
         id="path1506"
         style="fill:#f7c02e;fill-opacity:1"
         inkscape:connector-curvature="0" /><path
         d="m 15,32.714844 c -0.552246,0 -1,0.447265 -1,1 v 2.856445 c 0,0.552734 0.447754,1 1,1 0.552246,0 1,-0.447266 1,-1 v -2.856445 c 0,-0.552735 -0.447754,-1 -1,-1 z"
         id="path1508"
         style="fill:#f7c02e;fill-opacity:1"
         inkscape:connector-curvature="0" /><path
         d="m 15,38.428711 c -0.552246,0 -1,0.447265 -1,1 v 2.857422 c 0,0.552734 0.447754,1 1,1 0.552246,0 1,-0.447266 1,-1 v -2.857422 c 0,-0.552734 -0.447754,-1 -1,-1 z"
         id="path1510"
         style="fill:#f7c02e;fill-opacity:1"
         inkscape:connector-curvature="0" /><path
         d="m 15,44.143555 c -0.552246,0 -1,0.447265 -1,1 V 48 c 0,0.552734 0.447754,1 1,1 0.552246,0 1,-0.447266 1,-1 v -2.856445 c 0,-0.552735 -0.447754,-1 -1,-1 z"
         id="path1512"
         style="fill:#f7c02e;fill-opacity:1"
         inkscape:connector-curvature="0" /><path
         d="m 19,27 c -0.552246,0 -1,0.447266 -1,1 v 2.857422 c 0,0.552734 0.447754,1 1,1 0.552246,0 1,-0.447266 1,-1 V 28 c 0,-0.552734 -0.447754,-1 -1,-1 z"
         id="path1514"
         style="fill:#f7c02e;fill-opacity:1"
         inkscape:connector-curvature="0" /><path
         d="m 19,32.714844 c -0.552246,0 -1,0.447265 -1,1 v 2.856445 c 0,0.552734 0.447754,1 1,1 0.552246,0 1,-0.447266 1,-1 v -2.856445 c 0,-0.552735 -0.447754,-1 -1,-1 z"
         id="path1516"
         style="fill:#f7c02e;fill-opacity:1"
         inkscape:connector-curvature="0" /><path
         d="m 19,38.428711 c -0.552246,0 -1,0.447265 -1,1 v 2.857422 c 0,0.552734 0.447754,1 1,1 0.552246,0 1,-0.447266 1,-1 v -2.857422 c 0,-0.552734 -0.447754,-1 -1,-1 z"
         id="path1518"
         style="fill:#f7c02e;fill-opacity:1"
         inkscape:connector-curvature="0" /><path
         d="m 24,31.857422 c 0.552246,0 1,-0.447266 1,-1 V 28 c 0,-0.552734 -0.447754,-1 -1,-1 -0.552246,0 -1,0.447266 -1,1 v 2.857422 c 0,0.552734 0.447754,1 1,1 z"
         id="path1520"
         style="fill:#f7c02e;fill-opacity:1"
         inkscape:connector-curvature="0" /><path
         d="m 24,37.571289 c 0.552246,0 1,-0.447266 1,-1 v -2.856445 c 0,-0.552735 -0.447754,-1 -1,-1 -0.552246,0 -1,0.447265 -1,1 v 2.856445 c 0,0.552734 0.447754,1 1,1 z"
         id="path1522"
         style="fill:#f7c02e;fill-opacity:1"
         inkscape:connector-curvature="0" /><path
         d="m 24,43.286133 c 0.552246,0 1,-0.447266 1,-1 v -2.857422 c 0,-0.552735 -0.447754,-1 -1,-1 -0.552246,0 -1,0.447265 -1,1 v 2.857422 c 0,0.552734 0.447754,1 1,1 z"
         id="path1524"
         style="fill:#f7c02e;fill-opacity:1"
         inkscape:connector-curvature="0" /><path
         d="m 28,31.857422 c 0.552246,0 1,-0.447266 1,-1 V 28 c 0,-0.552734 -0.447754,-1 -1,-1 -0.552246,0 -1,0.447266 -1,1 v 2.857422 c 0,0.552734 0.447754,1 1,1 z"
         id="path1526"
         style="fill:#f7c02e;fill-opacity:1"
         inkscape:connector-curvature="0" /><path
         d="m 28,37.571289 c 0.552246,0 1,-0.447266 1,-1 v -2.856445 c 0,-0.552735 -0.447754,-1 -1,-1 -0.552246,0 -1,0.447265 -1,1 v 2.856445 c 0,0.552734 0.447754,1 1,1 z"
         id="path1528"
         style="fill:#f7c02e;fill-opacity:1"
         inkscape:connector-curvature="0" /><path
         d="m 28,43.286133 c 0.552246,0 1,-0.447266 1,-1 v -2.857422 c 0,-0.552735 -0.447754,-1 -1,-1 -0.552246,0 -1,0.447265 -1,1 v 2.857422 c 0,0.552734 0.447754,1 1,1 z"
         id="path1530"
         style="fill:#f7c02e;fill-opacity:1"
         inkscape:connector-curvature="0" /><path
         d="m 32,31.857422 c 0.552246,0 1,-0.447266 1,-1 V 28 c 0,-0.552734 -0.447754,-1 -1,-1 -0.552246,0 -1,0.447266 -1,1 v 2.857422 c 0,0.552734 0.447754,1 1,1 z"
         id="path1532"
         style="fill:#f7c02e;fill-opacity:1"
         inkscape:connector-curvature="0" /><path
         d="m 32,37.571289 c 0.552246,0 1,-0.447266 1,-1 v -2.856445 c 0,-0.552735 -0.447754,-1 -1,-1 -0.552246,0 -1,0.447265 -1,1 v 2.856445 c 0,0.552734 0.447754,1 1,1 z"
         id="path1534"
         style="fill:#f7c02e;fill-opacity:1"
         inkscape:connector-curvature="0" /><path
         d="m 32,43.286133 c 0.552246,0 1,-0.447266 1,-1 v -2.857422 c 0,-0.552735 -0.447754,-1 -1,-1 -0.552246,0 -1,0.447265 -1,1 v 2.857422 c 0,0.552734 0.447754,1 1,1 z"
         id="path1536"
         style="fill:#f7c02e;fill-opacity:1"
         inkscape:connector-curvature="0" /><path
         d="m 37,31.857422 c 0.552246,0 1,-0.447266 1,-1 V 28 c 0,-0.552734 -0.447754,-1 -1,-1 -0.552246,0 -1,0.447266 -1,1 v 2.857422 c 0,0.552734 0.447754,1 1,1 z"
         id="path1538"
         style="fill:#f7c02e;fill-opacity:1"
         inkscape:connector-curvature="0" /><path
         d="m 37,37.571289 c 0.552246,0 1,-0.447266 1,-1 v -2.856445 c 0,-0.552735 -0.447754,-1 -1,-1 -0.552246,0 -1,0.447265 -1,1 v 2.856445 c 0,0.552734 0.447754,1 1,1 z"
         id="path1540"
         style="fill:#f7c02e;fill-opacity:1"
         inkscape:connector-curvature="0" /><path
         d="m 37,43.286133 c 0.552246,0 1,-0.447266 1,-1 v -2.857422 c 0,-0.552735 -0.447754,-1 -1,-1 -0.552246,0 -1,0.447265 -1,1 v 2.857422 c 0,0.552734 0.447754,1 1,1 z"
         id="path1542"
         style="fill:#f7c02e;fill-opacity:1"
         inkscape:connector-curvature="0" /><path
         d="m 41,31.857422 c 0.552246,0 1,-0.447266 1,-1 V 28 c 0,-0.552734 -0.447754,-1 -1,-1 -0.552246,0 -1,0.447266 -1,1 v 2.857422 c 0,0.552734 0.447754,1 1,1 z"
         id="path1544"
         style="fill:#f7c02e;fill-opacity:1"
         inkscape:connector-curvature="0" /><path
         d="m 41,37.571289 c 0.552246,0 1,-0.447266 1,-1 v -2.856445 c 0,-0.552735 -0.447754,-1 -1,-1 -0.552246,0 -1,0.447265 -1,1 v 2.856445 c 0,0.552734 0.447754,1 1,1 z"
         id="path1546"
         style="fill:#f7c02e;fill-opacity:1"
         inkscape:connector-curvature="0" /><path
         d="m 41,43.286133 c 0.552246,0 1,-0.447266 1,-1 v -2.857422 c 0,-0.552735 -0.447754,-1 -1,-1 -0.552246,0 -1,0.447265 -1,1 v 2.857422 c 0,0.552734 0.447754,1 1,1 z"
         id="path1548"
         style="fill:#f7c02e;fill-opacity:1"
         inkscape:connector-curvature="0" /><path
         d="m 41,49 c 0.552246,0 1,-0.447266 1,-1 v -2.856445 c 0,-0.552735 -0.447754,-1 -1,-1 -0.552246,0 -1,0.447265 -1,1 V 48 c 0,0.552734 0.447754,1 1,1 z"
         id="path1550"
         style="fill:#f7c02e;fill-opacity:1"
         inkscape:connector-curvature="0" /></g></g></svg>