<?xml version="1.0" encoding="UTF-8" standalone="no"?>
<svg
   xmlns:dc="http://purl.org/dc/elements/1.1/"
   xmlns:cc="http://creativecommons.org/ns#"
   xmlns:rdf="http://www.w3.org/1999/02/22-rdf-syntax-ns#"
   xmlns:svg="http://www.w3.org/2000/svg"
   xmlns="http://www.w3.org/2000/svg"
   xmlns:sodipodi="http://sodipodi.sourceforge.net/DTD/sodipodi-0.dtd"
   xmlns:inkscape="http://www.inkscape.org/namespaces/inkscape"
   viewBox="0 0 40.16 39.919998"
   x="0px"
   y="0px"
   version="1.1"
   id="svg2736"
   sodipodi:docname="noun_savings_1938474.svg"
   width="40.16"
   height="39.919998"
   inkscape:version="0.92.5 (2060ec1f9f, 2020-04-08)">
  <metadata
     id="metadata2742">
    <rdf:RDF>
      <cc:Work
         rdf:about="">
        <dc:format>image/svg+xml</dc:format>
        <dc:type
           rdf:resource="http://purl.org/dc/dcmitype/StillImage" />
        <dc:title>Ресурс 44</dc:title>
      </cc:Work>
    </rdf:RDF>
  </metadata>
  <defs
     id="defs2740" />
  <sodipodi:namedview
     pagecolor="#ffffff"
     bordercolor="#666666"
     borderopacity="1"
     objecttolerance="10"
     gridtolerance="10"
     guidetolerance="10"
     inkscape:pageopacity="0"
     inkscape:pageshadow="2"
     inkscape:window-width="1920"
     inkscape:window-height="995"
     id="namedview2738"
     showgrid="false"
     inkscape:zoom="22.990272"
     inkscape:cx="22.126143"
     inkscape:cy="25.593594"
     inkscape:window-x="0"
     inkscape:window-y="0"
     inkscape:window-maximized="1"
     inkscape:current-layer="svg2736" />
  <title
     id="title2720">Ресурс 44</title>
  <g
     data-name="Слой 2"
     id="g2730"
     style="fill:#f7c02e;fill-opacity:1"
     transform="translate(0.06151356,-0.09675952)">
    <g
       data-name="Слой 1"
       id="g2728"
       style="fill:#f7c02e;fill-opacity:1">
      <path
         d="m 39.91,27.64 a 2.42,2.42 0 0 0 -3,-1.19 l -7.52,3.11 v -0.35 a 2.89,2.89 0 0 0 -0.69,-1.6 2.93,2.93 0 0 0 -1.86,-1 h -4.6 c -2.28,0 -2.32,-0.19 -5.56,-0.62 -3.24,-0.43 -3.35,-1.2 -6.24,-1.2 H 10 A 10.17,10.17 0 0 0 5.55,26.1 1.19,1.19 0 0 0 4.4,25 H 1.19 A 1.19,1.19 0 0 0 0,26.19 v 12.53 a 1.19,1.19 0 0 0 1.19,1.19 H 4.4 a 1.19,1.19 0 0 0 1.19,-1.19 v -0.34 a 7.79,7.79 0 0 1 1.62,-0.77 10.31,10.31 0 0 1 3.47,-0.42 h 0.15 a 17.78,17.78 0 0 1 3.43,0.33 c 1.57,0.31 1.76,0.58 3.5,0.86 0.23,0 1.11,0.17 2.28,0.25 0.55,0 1.05,0 1.52,0 h 0.89 A 11,11 0 0 0 27.68,37 l 11.43,-6.35 a 2.42,2.42 0 0 0 0.8,-3.01 z m -36,-0.4 v 0 11 H 1.7 V 26.7 h 2.19 z m 34.3,2 -11.34,6.3 v 0 0 A 9.33,9.33 0 0 1 22.38,37 h -0.83 c -0.47,0 -0.94,0 -1.41,0 -1,-0.06 -1.82,-0.18 -2.11,-0.23 a 10.83,10.83 0 0 1 -1.72,-0.41 15.5,15.5 0 0 0 -1.72,-0.44 19.58,19.58 0 0 0 -3.76,-0.37 h -0.16 a 11.84,11.84 0 0 0 -4,0.5 9.33,9.33 0 0 0 -1.08,0.44 v -8.37 a 8.53,8.53 0 0 1 4.48,-1.57 h 0.37 a 7.73,7.73 0 0 1 2.81,0.46 17,17 0 0 0 3.2,0.73 c 1.07,0.14 1.78,0.25 2.35,0.35 a 17.39,17.39 0 0 0 3.43,0.29 h 4.52 a 1.0405888,1.0405888 0 0 1 -0.07,2.08 h -10 a 0.85,0.85 0 1 0 0,1.69 h 10.51 a 3.26,3.26 0 0 0 1.09,-0.23 L 30.1,31.16 37.54,28 a 0.7,0.7 0 0 1 0.21,0 0.7,0.7 0 0 1 0.44,1.25 z"
         id="path2722"
         style="fill:#f7c02e;fill-opacity:1"
         inkscape:connector-curvature="0" />
      <path
         d="m 16.87,14.05 a 4.17,4.17 0 0 0 1.22,0.66 6,6 0 0 0 1.46,0.32 v 0.8 a 0.68,0.68 0 0 0 0.18,0.49 0.72,0.72 0 0 0 1,0 0.68,0.68 0 0 0 0.18,-0.49 V 15 a 3.42,3.42 0 0 0 2,-0.91 2.4,2.4 0 0 0 0.73,-1.78 2.06,2.06 0 0 0 -0.43,-1.37 2.66,2.66 0 0 0 -1,-0.76 11.32,11.32 0 0 0 -1.56,-0.49 C 20.17,9.57 19.79,9.46 19.51,9.36 a 1.84,1.84 0 0 1 -0.7,-0.41 0.94,0.94 0 0 1 -0.28,-0.7 1.17,1.17 0 0 1 0.49,-1 2.13,2.13 0 0 1 1.3,-0.36 3.07,3.07 0 0 1 1.14,0.19 4.89,4.89 0 0 1 1,0.57 1.6,1.6 0 0 0 0.3,0.16 0.68,0.68 0 0 0 0.23,0 0.49,0.49 0 0 0 0.39,-0.21 0.77,0.77 0 0 0 0.16,-0.49 0.74,0.74 0 0 0 -0.32,-0.62 4.4,4.4 0 0 0 -2.29,-1 V 4.77 a 0.68,0.68 0 0 0 -0.18,-0.49 0.72,0.72 0 0 0 -1,0 0.68,0.68 0 0 0 -0.18,0.49 V 5.6 a 3.49,3.49 0 0 0 -2,0.93 2.45,2.45 0 0 0 -0.76,1.81 2.12,2.12 0 0 0 0.45,1.42 2.78,2.78 0 0 0 1.06,0.78 11.79,11.79 0 0 0 1.61,0.51 c 0.47,0.13 0.84,0.23 1.1,0.32 a 1.93,1.93 0 0 1 0.66,0.38 0.79,0.79 0 0 1 0.26,0.62 1.14,1.14 0 0 1 -0.48,1 2.32,2.32 0 0 1 -1.36,0.34 4,4 0 0 1 -1.23,-0.18 4.84,4.84 0 0 1 -1.19,-0.58 l -0.3,-0.15 a 0.64,0.64 0 0 0 -0.24,0 0.47,0.47 0 0 0 -0.38,0.21 0.77,0.77 0 0 0 -0.16,0.48 0.84,0.84 0 0 0 0.07,0.36 0.66,0.66 0 0 0 0.19,0.2 z"
         id="path2724"
         style="fill:#f7c02e;fill-opacity:1"
         inkscape:connector-curvature="0" />
      <path
         d="M 20.08,20.59 A 10.3,10.3 0 1 0 9.78,10.3 10.3,10.3 0 0 0 20.08,20.59 Z m 0,-18.91 a 8.61,8.61 0 1 1 -8.61,8.61 8.61,8.61 0 0 1 8.61,-8.6 z"
         id="path2726"
         style="fill:#f7c02e;fill-opacity:1"
         inkscape:connector-curvature="0" />
    </g>
  </g>
</svg>
