<?xml version="1.0" encoding="UTF-8" standalone="no"?>
<svg
   xmlns:dc="http://purl.org/dc/elements/1.1/"
   xmlns:cc="http://creativecommons.org/ns#"
   xmlns:rdf="http://www.w3.org/1999/02/22-rdf-syntax-ns#"
   xmlns:svg="http://www.w3.org/2000/svg"
   xmlns="http://www.w3.org/2000/svg"
   xmlns:sodipodi="http://sodipodi.sourceforge.net/DTD/sodipodi-0.dtd"
   xmlns:inkscape="http://www.inkscape.org/namespaces/inkscape"
   version="1.1"
   x="0px"
   y="0px"
   viewBox="0 0 100 100"
   xml:space="preserve"
   id="svg18"
   sodipodi:docname="noun_Industry_3010017.svg"
   width="100"
   height="100"
   inkscape:version="0.92.5 (2060ec1f9f, 2020-04-08)"><metadata
     id="metadata24"><rdf:RDF><cc:Work
         rdf:about=""><dc:format>image/svg+xml</dc:format><dc:type
           rdf:resource="http://purl.org/dc/dcmitype/StillImage" /><dc:title /></cc:Work></rdf:RDF></metadata><defs
     id="defs22" /><sodipodi:namedview
     pagecolor="#ffffff"
     bordercolor="#666666"
     borderopacity="1"
     objecttolerance="10"
     gridtolerance="10"
     guidetolerance="10"
     inkscape:pageopacity="0"
     inkscape:pageshadow="2"
     inkscape:window-width="1920"
     inkscape:window-height="995"
     id="namedview20"
     showgrid="true"
     showguides="false"
     inkscape:zoom="4"
     inkscape:cx="8.8306542"
     inkscape:cy="41.965245"
     inkscape:window-x="0"
     inkscape:window-y="0"
     inkscape:window-maximized="1"
     inkscape:current-layer="svg18"><inkscape:grid
       type="xygrid"
       id="grid834" /></sodipodi:namedview><path
     d="M 2.0008427,100 H 98.013372 c 1.200155,0 2.000258,-0.799925 2.000258,-1.999804 V 56.004288 c 0,-0.599941 -0.200024,-0.9999 -0.600076,-1.399864 L 79,37 78.010762,1.8095765 V 1.4096153 1.0096539 c 0,-0.19998062 -0.200028,-0.19998062 -0.200028,-0.39996001 L 77.610707,0.40971327 C 77.410683,0.20973264 77.410683,0.20973264 77.210658,0.20973264 L 77.010631,0.0097519 H 76.010499 64.008934 c -0.200027,0 -0.600076,0 -0.800103,0.19998074 0,0 -0.200027,0 -0.200027,0.19998063 -0.200027,0 -0.200027,0.19998062 -0.400052,0.19998062 l -0.200027,0.19997939 c 0,0.19998062 -0.200025,0.19998062 -0.200025,0.39996132 V 1.609596 2.0095572 L 61,47 44.027213,29.984966 c -0.600077,-0.59994 -0.705404,-1.200194 -1.505506,-1.000214 -1.112282,0 -1.561322,0.274936 -1.559174,1.074856 L 41,55 17.65336,31.739303 C 17.05328,31.139361 15.763984,29 13.764121,29 c -0.800102,0.199982 -1.717224,0.847718 -1.71778,1.647641 L 12,56 1.8195996,55.994412 C 0.61943727,55.993753 5.818069e-4,55.931357 5.818069e-4,57.131239 V 98.000196 C 5.818069e-4,99.200075 0.80068607,100 2.0008427,100 Z M 76,2 V 7 H 64 V 2 Z M 64,9 h 12 l 1.024932,25.986041 -5.535588,-5.584415 c -0.600078,-0.599944 -0.663822,-0.616854 -1.463927,-0.416874 -0.800102,0.199982 -1.105687,0.182424 -1.10236,0.98234 L 69.025485,54.586118 63.0259,48.989047 Z m -62,49 11.030139,-0.018 c 1.200151,-0.002 1.053129,-1.738121 1.049171,-2.937996 L 14,31 40.605882,57.404152 c 0.600077,0.599943 0.958241,0.795831 1.758343,0.595848 0.800105,-0.39996 0.670956,-1.085304 0.669826,-1.885227 L 43,32 68.609534,57.404152 c 0.600078,0.599943 0.930507,0.643574 1.730611,0.443591 0.800103,-0.39996 0.667697,-1.04532 0.667449,-1.845243 L 71,31.553046 l 8.22142,8.167218 v 0 L 98,55.597886 V 98 H 2 Z"
     id="path2"
     inkscape:connector-curvature="0"
     style="fill:#fffffa;fill-opacity:1;stroke-width:2.0000329"
     sodipodi:nodetypes="ssssccccscccccsccccscccccscccscssssccccccccccsccccsscccscccsccccccc" /><path
     d="m 18.02901,64.992483 h -3.999723 c -0.599959,0 -0.999931,0.400086 -0.999931,1.000214 v 4.000859 c 0,0.60013 0.399972,1.000215 0.999931,1.000215 h 3.999723 c 0.599959,0 0.99993,-0.400085 0.99993,-1.000215 v -4.000859 c 0,-0.600128 -0.399971,-1.000214 -0.99993,-1.000214 z m -0.999931,4.000859 h -1.999862 v -2.000429 h 1.999862 z"
     id="path4"
     inkscape:connector-curvature="0"
     style="fill:#fffffa;fill-opacity:1;stroke-width:1.00007272" /><path
     d="m 26.028457,64.992483 h -3.999724 c -0.599959,0 -0.99993,0.400086 -0.99993,1.000214 v 4.000859 c 0,0.60013 0.399971,1.000215 0.99993,1.000215 h 3.999724 c 0.599958,0 0.99993,-0.400085 0.99993,-1.000215 v -4.000859 c 0,-0.600128 -0.399972,-1.000214 -0.99993,-1.000214 z m -0.999931,4.000859 h -1.999862 v -2.000429 h 1.999862 z"
     id="path6"
     inkscape:connector-curvature="0"
     style="fill:#fffffa;fill-opacity:1;stroke-width:1.00007272" /><path
     d="m 34.027904,64.992483 h -3.999723 c -0.599958,0 -0.999931,0.400086 -0.999931,1.000214 v 4.000859 c 0,0.60013 0.399973,1.000215 0.999931,1.000215 h 3.999723 c 0.599959,0 0.999932,-0.400085 0.999932,-1.000215 v -4.000859 c 0,-0.600128 -0.399973,-1.000214 -0.999932,-1.000214 z m -0.99993,4.000859 h -1.999861 v -2.000429 h 1.999861 z"
     id="path8"
     inkscape:connector-curvature="0"
     style="fill:#fffffa;fill-opacity:1;stroke-width:1.00007272" /><path
     d="m 42.027351,64.992483 h -3.999723 c -0.599958,0 -0.999931,0.400086 -0.999931,1.000214 v 4.000859 c 0,0.60013 0.399973,1.000215 0.999931,1.000215 h 3.999723 c 0.599959,0 0.999932,-0.400085 0.999932,-1.000215 v -4.000859 c 0,-0.600128 -0.399973,-1.000214 -0.999932,-1.000214 z m -0.999931,4.000859 h -1.999861 v -2.000429 h 1.999861 z"
     id="path10"
     inkscape:connector-curvature="0"
     style="fill:#fffffa;fill-opacity:1;stroke-width:1.00007272" /><path
     d="m 50.026798,64.992483 h -3.999724 c -0.599957,0 -0.99993,0.400086 -0.99993,1.000214 v 4.000859 c 0,0.60013 0.399973,1.000215 0.99993,1.000215 h 3.999724 c 0.599959,0 0.999931,-0.400085 0.999931,-1.000215 v -4.000859 c 0,-0.600128 -0.399972,-1.000214 -0.999931,-1.000214 z m -0.999931,4.000859 h -1.999861 v -2.000429 h 1.999861 z"
     id="path12"
     inkscape:connector-curvature="0"
     style="fill:#fffffa;fill-opacity:1;stroke-width:1.00007272" /></svg>