<?xml version="1.0" encoding="UTF-8" standalone="no"?>
<svg
   xmlns:dc="http://purl.org/dc/elements/1.1/"
   xmlns:cc="http://creativecommons.org/ns#"
   xmlns:rdf="http://www.w3.org/1999/02/22-rdf-syntax-ns#"
   xmlns:svg="http://www.w3.org/2000/svg"
   xmlns="http://www.w3.org/2000/svg"
   xmlns:sodipodi="http://sodipodi.sourceforge.net/DTD/sodipodi-0.dtd"
   xmlns:inkscape="http://www.inkscape.org/namespaces/inkscape"
   version="1.1"
   x="0px"
   y="0px"
   viewBox="0 0 50 40"
   xml:space="preserve"
   id="svg2655"
   sodipodi:docname="noun_Sofa_3893476.svg"
   width="50"
   height="40"
   inkscape:version="0.92.5 (2060ec1f9f, 2020-04-08)"><metadata
     id="metadata2661"><rdf:RDF><cc:Work
         rdf:about=""><dc:format>image/svg+xml</dc:format><dc:type
           rdf:resource="http://purl.org/dc/dcmitype/StillImage" /><dc:title></dc:title></cc:Work></rdf:RDF></metadata><defs
     id="defs2659" /><sodipodi:namedview
     pagecolor="#ffffff"
     bordercolor="#666666"
     borderopacity="1"
     objecttolerance="10"
     gridtolerance="10"
     guidetolerance="10"
     inkscape:pageopacity="0"
     inkscape:pageshadow="2"
     inkscape:window-width="1920"
     inkscape:window-height="995"
     id="namedview2657"
     showgrid="true"
     inkscape:zoom="8"
     inkscape:cx="-27.176256"
     inkscape:cy="31.776783"
     inkscape:window-x="0"
     inkscape:window-y="0"
     inkscape:window-maximized="1"
     inkscape:current-layer="svg2655"
     showguides="true"><inkscape:grid
       type="xygrid"
       id="grid814" /></sodipodi:namedview><style
     type="text/css"
     id="style2645">
	.st0{display:none;}
	.st1{display:inline;}
</style><g
     id="g2649"
     style="fill:#f7c02e;fill-opacity:1"
     transform="matrix(0.5555149,0,0,0.70153093,-2.7771892,-14.729629)"><path
       d="m 90.5,36 h -0.894502 l 0.01878,-7.445073 C 89.634616,24.454935 85.5,21 81.2,21 h -25 c -2.6,0 -4.8,1.2 -6.3,3.1 -1.4,-1.9 -3.7,-3.101159 -6.3,-3.1 l -24.985936,0.01114 c -4.3,0.0019 -7.792301,3.400005 -7.8,7.5 L 10.8,36 H 9.5 C 7,36 5,38 5,40.5 v 33 C 5,76 7,78 9.5,78 h 81 C 93,78 95,76 95,73.5 v -33 C 95,38 93,36 90.5,36 Z M 56.265318,23.862684 81.3,23.876415 c 2.599999,0.0014 4.661274,2.123736 4.695954,4.623585 l 0.0093,7.476376 L 84.6,36 h -0.1 c -2.6,0 -3.897374,2.022273 -3.896824,4.522273 l 0.0017,7.557758 H 51.802731 L 51.470326,28.754806 c -0.043,-2.499768 2.094993,-4.893603 4.794992,-4.892122 z m -36.864958,27.068255 30.60224,0 h 30.602239 v 2.850908 l -61.204479,0 z M 14,28.5 c 0,-2.5 1.101496,-4.584614 3.801489,-4.589091 l 25.615043,-0.04247 c 2.599994,-0.0043 4.341669,2.270187 4.393555,4.76985 l 0.392381,19.441741 -28.802108,10e-7 0.108329,-7.544546 C 19.544583,38.035647 18.2,36 15.7,36 H 15.6 14 Z m 77.410407,45.247169 c -8.35e-4,0.8 -0.838728,1.389962 -1.638728,1.390147 L 9.4156188,75.155909 C 8.6156189,75.156094 8.6181041,73.81 8.6187953,73.01 L 8.6469223,40.455455 C 8.6476135,39.655455 8.7,39 9.5,39 h 3 l 2.443113,0.0315 c 0.898685,0.01159 0.907948,0.763005 0.903335,1.562997 l -0.08438,14.631245 c -0.0046,0.799992 2.078569,1.440467 2.878569,1.440169 l 63.740477,-0.02369 c 0.8,-2.97e-4 1.942392,-0.507014 1.936802,-1.307002 L 84.213868,40.445073 c -0.0056,-0.799987 0.0064,-1.481395 0.806361,-1.472536 L 87.5,39 90.291908,38.972537 C 91.091847,38.964668 91.445923,39.7 91.445089,40.5 Z"
       id="path2647"
       style="fill:#f7c02e;fill-opacity:1"
       inkscape:connector-curvature="0"
       sodipodi:nodetypes="scssscssscsssssssssssccssccssccccccssssccssccssssssscsssssssscsss" /></g></svg>