<?xml version="1.0" encoding="UTF-8" standalone="no"?>
<svg
   xmlns:dc="http://purl.org/dc/elements/1.1/"
   xmlns:cc="http://creativecommons.org/ns#"
   xmlns:rdf="http://www.w3.org/1999/02/22-rdf-syntax-ns#"
   xmlns:svg="http://www.w3.org/2000/svg"
   xmlns="http://www.w3.org/2000/svg"
   xmlns:sodipodi="http://sodipodi.sourceforge.net/DTD/sodipodi-0.dtd"
   xmlns:inkscape="http://www.inkscape.org/namespaces/inkscape"
   version="1.1"
   x="0px"
   y="0px"
   viewBox="0 0 50 50"
   enable-background="new 0 0 64 64"
   xml:space="preserve"
   id="svg20"
   sodipodi:docname="noun_industrial cleaning_2631959.svg"
   width="50"
   height="50"
   inkscape:version="0.92.5 (2060ec1f9f, 2020-04-08)"><metadata
     id="metadata26"><rdf:RDF><cc:Work
         rdf:about=""><dc:format>image/svg+xml</dc:format><dc:type
           rdf:resource="http://purl.org/dc/dcmitype/StillImage" /><dc:title /></cc:Work></rdf:RDF></metadata><defs
     id="defs24" /><sodipodi:namedview
     pagecolor="#ffffff"
     bordercolor="#666666"
     borderopacity="1"
     objecttolerance="10"
     gridtolerance="10"
     guidetolerance="10"
     inkscape:pageopacity="0"
     inkscape:pageshadow="2"
     inkscape:window-width="1920"
     inkscape:window-height="995"
     id="namedview22"
     showgrid="true"
     inkscape:zoom="11.313709"
     inkscape:cx="14.477878"
     inkscape:cy="32.381903"
     inkscape:window-x="0"
     inkscape:window-y="0"
     inkscape:window-maximized="1"
     inkscape:current-layer="g12"
     showguides="true"><inkscape:grid
       type="xygrid"
       id="grid818" /></sodipodi:namedview><g
     id="g14"
     transform="translate(-2.8763666,-0.9966371)"><g
       id="g12"
       transform="translate(-0.0599243)"><path
         d="m 5.5169492,12.491525 c 1.6542969,0 3,1.345703 3,3 0,0.552734 0.4472656,1 1,1 0.5527348,0 0.9999998,-0.447266 0.9999998,-1 0,-1.654297 1.345703,-3 3,-3 0.552734,0 1,-0.447266 1,-1 0,-0.552734 -0.447266,-1 -1,-1 -1.654297,0 -3,-1.3457026 -3,-2.9999996 0,-0.552734 -0.447265,-1 -0.9999998,-1 -0.5527344,0 -1,0.447266 -1,1 0,1.654297 -1.3457031,2.9999996 -3,2.9999996 -0.5527344,0 -1,0.447266 -1,1 0,0.552734 0.4472656,1 1,1 z m 4,-2.00293 c 0.2851563,0.379883 0.6230468,0.717774 1.0029298,1.00293 -0.379883,0.285156 -0.7177735,0.623047 -1.0029298,1.00293 C 9.231793,12.114572 8.8939023,11.776681 8.5140195,11.491525 8.8939023,11.206369 9.231793,10.868478 9.5169492,10.488595 Z"
         id="path2"
         inkscape:connector-curvature="0"
         style="fill:#f7c02e;fill-opacity:1" /><path
         d="m 31.872881,16.677966 c -1.654297,0 -3,-1.345703 -3,-3 0,-0.552734 -0.447266,-1 -1,-1 -0.552734,0 -1,0.447266 -1,1 0,1.654297 -1.345703,3 -3,3 -0.552734,0 -1,0.447266 -1,1 0,0.552734 0.447266,1 1,1 1.654297,0 3,1.345703 3,3 0,0.552734 0.447266,1 1,1 0.552734,0 1,-0.447266 1,-1 0,-1.654297 1.345703,-3 3,-3 0.552734,0 1,-0.447266 1,-1 0,-0.552734 -0.447266,-1 -1,-1 z m -4,2.00293 c -0.285156,-0.379883 -0.623047,-0.717774 -1.00293,-1.00293 0.379883,-0.285156 0.717774,-0.623047 1.00293,-1.00293 0.285156,0.379883 0.623047,0.717774 1.00293,1.00293 -0.379883,0.285156 -0.717774,0.623047 -1.00293,1.00293 z"
         id="path4"
         inkscape:connector-curvature="0"
         style="fill:#f7c02e;fill-opacity:1" /><path
         d="m 51.892793,44.181475 -2.956502,-0.0221 -0.168282,-23.84274 c -0.0044,-0.628123 -0.465871,-1.136421 -1.041595,-1.136421 H 45.57984 L 44.599594,2.0628786 C 44.565011,1.4635942 44.110329,0.9974841 43.560035,0.9974841 h -4.16638 c -0.550297,0 -1.004978,0.4661101 -1.039562,1.0653945 L 37.373529,19.180217 h -1.625457 c -0.251245,0 -0.49435,0.09988 -0.684565,0.279667 l -6.335012,6.027247 -9.640856,-6.151543 c -0.323465,-0.205311 -0.721189,-0.20864 -1.044647,-0.0044 -0.323463,0.201973 -0.522831,0.578191 -0.522831,0.985482 v 4.810922 L 8.6818609,19.342246 C 8.359414,19.131386 7.9596613,19.125837 7.6321285,19.327815 7.305613,19.529796 7.1042108,19.907124 7.1042108,20.316635 L 6.9362909,44.181472 H 3.979426 c -0.5757254,0 -1.041595,0.508283 -1.041595,1.136421 v 4.545684 C 2.937831,50.491717 3.4037006,51 3.979426,51 h 47.913367 c 0.575726,0 1.041595,-0.508283 1.041595,-1.13642 v -4.545684 c 0,-0.628138 -0.465869,-1.136421 -1.041595,-1.136421 z M 39.936291,2.9966371 h 3 L 43.4929,19.180217 H 39.460788 Z M 9.1874006,22.324241 18.025701,28.109555 c 0.322446,0.21086 0.723215,0.216408 1.049731,0.01443 0.326516,-0.201988 0.527918,-0.579315 0.527918,-0.988827 v -4.837557 l 8.719289,5.563357 c 0.386531,0.246373 0.872742,0.196433 1.210447,-0.124296 l 6.605584,-6.283608 h 2.21339 6.249569 c 0.007,0 0.01526,0.0011 0.02033,0 h 2.06285 l 0.251482,22.706324 -38.0000001,0.01105 z M 50.936291,48.996637 H 4.9362909 v -3 h 3.1984664 39.5916567 3.209877 z"
         id="path6"
         inkscape:connector-curvature="0"
         style="fill:#f7c02e;fill-opacity:1;stroke-width:1.08797526"
         sodipodi:nodetypes="scssccssccsccccscccscssssssssccccccccscccccscccccccccccc" /><path
         d="m 43,35 c 0,-0.552284 -0.447716,-1 -1,-1 H 28 c -0.552284,0 -1,0.447716 -1,1 v 4 c 0,0.552284 0.447716,1 1,1 h 14 c 0.552284,0 1,-0.447716 1,-1 z m -2,3 H 29 v -2 h 12 z"
         id="path8"
         inkscape:connector-curvature="0"
         style="fill:#f7c02e;fill-opacity:1" /><path
         d="m 25,35 c 0,-0.552284 -0.447716,-1 -1,-1 H 12 c -0.552285,0 -1,0.447716 -1,1 v 4 c 0,0.552284 0.447715,1 1,1 h 12 c 0.552284,0 1,-0.447716 1,-1 z m -2,3 H 13 v -2 h 10 z"
         id="path10"
         inkscape:connector-curvature="0"
         style="fill:#f7c02e;fill-opacity:1" /></g></g></svg>