<?xml version="1.0" encoding="UTF-8" standalone="no"?>
<svg
   xmlns:dc="http://purl.org/dc/elements/1.1/"
   xmlns:cc="http://creativecommons.org/ns#"
   xmlns:rdf="http://www.w3.org/1999/02/22-rdf-syntax-ns#"
   xmlns:svg="http://www.w3.org/2000/svg"
   xmlns="http://www.w3.org/2000/svg"
   xmlns:sodipodi="http://sodipodi.sourceforge.net/DTD/sodipodi-0.dtd"
   xmlns:inkscape="http://www.inkscape.org/namespaces/inkscape"
   version="1.1"
   x="0px"
   y="0px"
   viewBox="0 0 84 64"
   id="svg1071"
   sodipodi:docname="noun_Bed_2206800.svg"
   width="84"
   height="64"
   inkscape:version="0.92.5 (2060ec1f9f, 2020-04-08)">
  <metadata
     id="metadata1077">
    <rdf:RDF>
      <cc:Work
         rdf:about="">
        <dc:format>image/svg+xml</dc:format>
        <dc:type
           rdf:resource="http://purl.org/dc/dcmitype/StillImage" />
        <dc:title></dc:title>
      </cc:Work>
    </rdf:RDF>
  </metadata>
  <defs
     id="defs1075" />
  <sodipodi:namedview
     pagecolor="#ffffff"
     bordercolor="#666666"
     borderopacity="1"
     objecttolerance="10"
     gridtolerance="10"
     guidetolerance="10"
     inkscape:pageopacity="0"
     inkscape:pageshadow="2"
     inkscape:window-width="1920"
     inkscape:window-height="995"
     id="namedview1073"
     showgrid="false"
     inkscape:zoom="12.976"
     inkscape:cx="46.561085"
     inkscape:cy="11.217707"
     inkscape:window-x="0"
     inkscape:window-y="0"
     inkscape:window-maximized="1"
     inkscape:current-layer="svg1071" />
  <g
     transform="translate(-7.9377311,-970.4368)"
     id="g1065"
     style="fill:#f7c02e;fill-opacity:1">
    <path
       style="color:#000000;text-indent:0;text-transform:none;direction:ltr;baseline-shift:baseline;display:inline;overflow:visible;visibility:visible;fill:#f7c02e;fill-opacity:1;stroke:none;enable-background:accumulate"
       d="m 20,970.36219 a 2.0002,2.0002 0 0 0 -2,2 v 19.99999 h -2 c -4.39741,0 -7.9999998,3.6026 -7.9999998,8.00002 v 22 a 2.0002,2.0002 0 0 0 1.9999998,2 h 1 v 8 a 2.0001999,2.0001999 0 0 0 2,2 h 8 a 2.0001999,2.0001999 0 0 0 2,-2 v -8 h 54 v 8 a 2.0001999,2.0001999 0 0 0 2,2 h 8 a 2.0001999,2.0001999 0 0 0 2,-2 v -8 h 1 a 2.0002,2.0002 0 0 0 2,-2 v -22 c 0,-4.39742 -3.60259,-8.00002 -8,-8.00002 h -2 v -19.99999 a 2.0002,2.0002 0 0 0 -2,-2 z m 2,4 h 56 v 17.99999 h -4 v -8 a 2.0002,2.0002 0 0 0 -2,-2 H 56 a 2.0002,2.0002 0 0 0 -2,2 v 8 h -8 v -8 a 2.0002,2.0002 0 0 0 -2,-2 H 28 a 2.0002,2.0002 0 0 0 -2,2 v 8 h -4 z m 8,11.99999 h 12 v 6 H 30 Z m 28,0 h 12 v 6 H 58 Z m -42,10 h 68 c 2.25061,0 4,1.7494 4,4.00002 v 6 H 12 v -6 c 0,-2.25062 1.74939,-4.00002 4,-4.00002 z m -4,14.00002 h 76 v 10 H 12 Z m 3,14 h 4 v 6 h -4 z m 66,0 h 4 v 6 h -4 z"
       marker="none"
       visibility="visible"
       display="inline"
       overflow="visible"
       id="path1063"
       inkscape:connector-curvature="0" />
  </g>
</svg>
