<?xml version="1.0" encoding="UTF-8" standalone="no"?>
<svg
   xmlns:dc="http://purl.org/dc/elements/1.1/"
   xmlns:cc="http://creativecommons.org/ns#"
   xmlns:rdf="http://www.w3.org/1999/02/22-rdf-syntax-ns#"
   xmlns:svg="http://www.w3.org/2000/svg"
   xmlns="http://www.w3.org/2000/svg"
   xmlns:sodipodi="http://sodipodi.sourceforge.net/DTD/sodipodi-0.dtd"
   xmlns:inkscape="http://www.inkscape.org/namespaces/inkscape"
   viewBox="0 0 39.999999 50"
   x="0px"
   y="0px"
   version="1.1"
   id="svg2287"
   sodipodi:docname="noun_smell_3883675.svg"
   width="40"
   height="50"
   inkscape:version="0.92.5 (2060ec1f9f, 2020-04-08)">
  <metadata
     id="metadata2293">
    <rdf:RDF>
      <cc:Work
         rdf:about="">
        <dc:format>image/svg+xml</dc:format>
        <dc:type
           rdf:resource="http://purl.org/dc/dcmitype/StillImage" />
        <dc:title>Монтажная область 98</dc:title>
      </cc:Work>
    </rdf:RDF>
  </metadata>
  <defs
     id="defs2291" />
  <sodipodi:namedview
     pagecolor="#ffffff"
     bordercolor="#666666"
     borderopacity="1"
     objecttolerance="10"
     gridtolerance="10"
     guidetolerance="10"
     inkscape:pageopacity="0"
     inkscape:pageshadow="2"
     inkscape:window-width="1920"
     inkscape:window-height="995"
     id="namedview2289"
     showgrid="true"
     inkscape:zoom="22.627417"
     inkscape:cx="4.9219661"
     inkscape:cy="21.833817"
     inkscape:window-x="0"
     inkscape:window-y="0"
     inkscape:window-maximized="1"
     inkscape:current-layer="svg2287"
     showguides="true">
    <inkscape:grid
       type="xygrid"
       id="grid12" />
  </sodipodi:namedview>
  <title
     id="title2271">Монтажная область 98</title>
  <path
     d="m 39.861586,29.701397 c -0.0021,0.0861 -0.0149,0.17178 -0.03817,0.255662 -0.401757,1.389015 -1.269096,2.653008 -2.499909,3.643171 -1.459353,1.113673 -3.108859,1.383738 -4.983503,1.902902 C 30.941384,35.901602 29.474906,36.071329 28,36 c -0.07051,0.0026 0.0688,0.01322 0,0 -3.605313,0 -6.852735,0.90737 -10.491767,1 -0.126503,0.01602 -0.656575,0.01602 -0.783077,0 -0.667915,0.09588 -2.380822,0.07617 -5.583907,0 -0.05725,0 0.248085,0.07617 0,0 C 7.4552771,37.401527 3.8784973,36.216085 2.0194445,33.568272 1.9705494,33.512092 1.9259332,33.453387 1.8858616,33.392505 0.0347072,30.436423 -0.40420824,27.933074 0.56911529,25.882459 0.6123313,25.765063 0.68376726,25.656309 0.77903136,25.562883 6.9810971,18.899651 10.475129,14.891816 11.104877,13.320628 c 0.03817,-0.07989 0.07633,-0.143804 0.1145,-0.207725 0.652809,-0.998436 1.596496,-1.93796 2.074542,-3.003528 0.938072,-3.0887148 2.358644,-6.0449517 3.784206,-9 0.945629,-1.5147776 3.521241,-0.28480565 2.539063,1.2135772 -1.301254,2.8211655 -2.532742,5.5065881 -3.443359,8.4331488 l -0.322266,0.353274 c -0.524811,1.168101 -1.551737,1.901694 -2.259574,3 C 12.771408,16.010854 9.078125,20.037722 3.078125,26.790948 2.078125,28.181297 2.8076813,30.483744 4,32 c 0.9101121,1.284376 2.2384376,2.766017 4,3 h 1 c 0.4248535,0 0.5282715,-0.07813 1,0 1,-0.07813 0.52326,0 1,0 0.02174,-0.01974 0.971279,0.01195 1,0 l 2,-1.664307 c 0.187057,0.278562 0,0 0,0 1.2166,-0.586951 2,-1.62489 3.322444,-2.335693 2.182434,-1 4.4851,-1.812156 6.838982,-1.792975 0.836923,-0.03641 1.420766,0.09146 1.440939,0.792975 0.03822,0.701982 -0.25565,1.417763 -1.094132,1.447573 C 22.306085,31.447573 17.59447,33 16.34835,35 c 3.117585,0.13087 8.191808,-1.215358 11.298097,-1 1.066571,0.04811 2.714947,-0.35188 3.729203,-0.632304 C 33.959604,32.841751 36.587877,32.097001 37.481885,30 37.519625,28.171963 36.898398,25.328651 33.527236,25 32.753867,24.729717 32.693124,24.195747 33,23.542786 c 0.319709,-0.650086 0.724545,-0.664045 1.499187,-0.392823 3.386694,0.877055 5.607411,3.590133 5.362402,6.551317 z"
     id="path2273"
     style="fill:#f7c02e;fill-opacity:1;stroke-width:1.74621975"
     inkscape:connector-curvature="0"
     sodipodi:nodetypes="cccccccccccccccccccccccccccccccccccccccccccc" />
  <path
     d="M 14.443594,39.183918 C 13.639989,39.388179 13.117793,39.817997 13.36176,40.490867 13.663271,41.266472 13.97446,42.184621 14,43 c -0.0849,1.119088 -0.682813,2.408918 -1,3.498356 -0.443687,1.656222 1.656027,2.009921 2.099714,0.353699 C 15.461856,45.600974 15.911192,44.487732 16,43.202577 v 0 c -0.02179,-1.073441 -0.159609,-2.020631 -0.55213,-3.042682 -0.243909,-0.672948 -0.200641,-1.180364 -1.004276,-0.975974 z"
     id="path2275"
     style="fill:#f7c02e;fill-opacity:1;stroke-width:1.74621975"
     inkscape:connector-curvature="0"
     sodipodi:nodetypes="cccccccccc" />
  <polygon
     points="17.91,28.258 17.91,28.259 "
     id="polygon2277"
     transform="translate(0,4.9999991)" />
  <path
     d="M 22.314077,42.531436 C 22.219327,41.729751 22.443448,41.555737 22,40.84081 v -0.15468 0 c -1.111471,-1.425525 -3.120879,-0.856986 -2,0.563364 v 0 c 0.20639,0.410181 0.031,0.872313 0.160229,1.511262 0.176838,1.94767 0.455558,3.367589 0.563557,4.239244 0.208826,1.68909 2.48504,1.436825 2.276214,-0.252265 0.0708,-0.737926 -0.492434,-2.098095 -0.669603,-4.050824 -0.01632,-0.110232 -0.01083,-0.134773 -0.01632,-0.165475 z"
     id="path2279"
     style="fill:#f7c02e;fill-opacity:1;stroke-width:1.74621975"
     inkscape:connector-curvature="0"
     sodipodi:nodetypes="cccccccccccc" />
  <path
     d="M 28.350553,39.214313 C 27.547339,39.419667 27.75481,40.07991 28,40.752472 28.910812,43.420985 29.53346,46.252278 30,49 c 0.314282,1.674368 2.481433,1.017453 2.173794,-0.65778 C 31.685405,45.475256 30.95321,42.783825 30,40 29.754809,39.327409 29.15381,39.008985 28.350553,39.214313 Z"
     id="path2281"
     style="fill:#f7c02e;fill-opacity:1;stroke-width:1.74621975"
     inkscape:connector-curvature="0"
     sodipodi:nodetypes="cccccc" />
</svg>
