<?xml version="1.0" encoding="UTF-8" standalone="no"?>
<svg
   xmlns:dc="http://purl.org/dc/elements/1.1/"
   xmlns:cc="http://creativecommons.org/ns#"
   xmlns:rdf="http://www.w3.org/1999/02/22-rdf-syntax-ns#"
   xmlns:svg="http://www.w3.org/2000/svg"
   xmlns="http://www.w3.org/2000/svg"
   xmlns:sodipodi="http://sodipodi.sourceforge.net/DTD/sodipodi-0.dtd"
   xmlns:inkscape="http://www.inkscape.org/namespaces/inkscape"
   xml:space="preserve"
   version="1.1"
   style="clip-rule:evenodd;fill-rule:evenodd;image-rendering:optimizeQuality;shape-rendering:geometricPrecision;text-rendering:geometricPrecision"
   viewBox="0 0 50.000002 45.000002"
   x="0px"
   y="0px"
   id="svg14"
   sodipodi:docname="noun_Bed_3768025.svg"
   width="50"
   height="45"
   inkscape:version="0.92.5 (2060ec1f9f, 2020-04-08)"><metadata
     id="metadata18"><rdf:RDF><cc:Work
         rdf:about=""><dc:format>image/svg+xml</dc:format><dc:type
           rdf:resource="http://purl.org/dc/dcmitype/StillImage" /><dc:title /></cc:Work></rdf:RDF></metadata><sodipodi:namedview
     pagecolor="#ffffff"
     bordercolor="#666666"
     borderopacity="1"
     objecttolerance="10"
     gridtolerance="10"
     guidetolerance="10"
     inkscape:pageopacity="0"
     inkscape:pageshadow="2"
     inkscape:window-width="1920"
     inkscape:window-height="995"
     id="namedview16"
     showgrid="true"
     inkscape:zoom="8"
     inkscape:cx="38.174837"
     inkscape:cy="1.2293076"
     inkscape:window-x="0"
     inkscape:window-y="0"
     inkscape:window-maximized="1"
     inkscape:current-layer="svg14"
     showguides="true"><inkscape:grid
       type="xygrid"
       id="grid9" /></sodipodi:namedview><defs
     id="defs4"><style
       type="text/css"
       id="style2">
   
    .fil0 {fill:black;fill-rule:nonzero}
   
  </style></defs><g
     id="g8"
     transform="matrix(0.06327766,0,0,0.06755357,-1.7961569,-6.0956001)"
     style="fill:#f7c02e;fill-opacity:1"><path
       class="fil0"
       d="M 786.94688,504.71944 H 59.992056 v 88.8184 l 726.954824,0 z m -94.8202,118.42453 0,103.62147 h 94.8202 l 0,-103.62147 z M 817.82,628.23 v 107.96 c 0,10.85 -8.81052,19.75968 -19.66,19.66 L 678.41251,754.74984 C 667.56303,754.65016 661.3831,747.03971 661.29726,736.19 L 660.51995,623.14397 H 186.41898 l 0.0204,113.13771 c 0.002,10.85 -5.18864,19.768 -16.03863,19.75168 L 48.5,755.85 C 37.650014,755.8337 28.84,747.04 28.84,736.19 l 0.04,-244.42 c 0.43,-63.99 43.385518,-108.31793 94.32552,-137.98793 l 1.03212,-190.18759 C 124.44896,124.65498 148.82025,90.939862 187.75,90.81 l 502.16824,-1.675138 c 33.81517,-0.112801 34.23503,34.741738 34.16481,73.681688 l -0.34964,193.87222 c 48.07,29.74 94.24652,74.38141 94.08659,136.21123 z M 59.992056,623.14397 V 726.76544 H 154.81225 V 623.14397 Z m 0,-148.03066 726.954824,0 c -22.45,-128.96 -274.74741,-148.36067 -363.47741,-148.03067 -92.2,0.34 -341.537414,22.04067 -363.477414,148.03067 z M 423.33,162.61896 c 110.67,0 222.20995,59.98414 237.18995,167.13414 9.38,3.26 22.63673,8.24261 31.60673,12.13261 l 0.55191,-178.39652 c 0.0533,-17.21993 -1.9086,-42.12523 -19.12861,-42.11437 l -486.72052,0.3068 c -17.22,0.0109 -32.08412,25.53835 -32.07807,42.75835 l 0.0609,172.96135 c 7.04,-2.9 24.33677,-7.78868 31.60677,-10.31868 14.97,-107.15 126.24102,-164.46368 236.91102,-164.46368 z m 0,30.51347 c -84.06,0 -181.09429,52.31824 -205.30429,128.51824 121.04,-30.55 289.83751,-33.1531 410.88751,-2.6031 C 604.69322,242.84757 507.39,193.13243 423.33,193.13243 Z"
       id="path6"
       inkscape:connector-curvature="0"
       style="fill:#f7c02e;fill-opacity:1;fill-rule:nonzero"
       sodipodi:nodetypes="cccccccccccssssccssscccsssscsccccccccccsccssssccssscss" /></g></svg>