<?xml version="1.0" encoding="UTF-8" standalone="no"?>
<svg
   xmlns:dc="http://purl.org/dc/elements/1.1/"
   xmlns:cc="http://creativecommons.org/ns#"
   xmlns:rdf="http://www.w3.org/1999/02/22-rdf-syntax-ns#"
   xmlns:svg="http://www.w3.org/2000/svg"
   xmlns="http://www.w3.org/2000/svg"
   xmlns:sodipodi="http://sodipodi.sourceforge.net/DTD/sodipodi-0.dtd"
   xmlns:inkscape="http://www.inkscape.org/namespaces/inkscape"
   version="1.1"
   x="0px"
   y="0px"
   viewBox="0 0 40 50.000001"
   xml:space="preserve"
   id="svg144"
   sodipodi:docname="noun_Car Seat_1694451.svg"
   width="40"
   height="50"
   inkscape:version="0.92.5 (2060ec1f9f, 2020-04-08)"><metadata
     id="metadata150"><rdf:RDF><cc:Work
         rdf:about=""><dc:format>image/svg+xml</dc:format><dc:type
           rdf:resource="http://purl.org/dc/dcmitype/StillImage" /><dc:title /></cc:Work></rdf:RDF></metadata><defs
     id="defs148" /><sodipodi:namedview
     pagecolor="#ffffff"
     bordercolor="#666666"
     borderopacity="1"
     objecttolerance="10"
     gridtolerance="10"
     guidetolerance="10"
     inkscape:pageopacity="0"
     inkscape:pageshadow="2"
     inkscape:window-width="1920"
     inkscape:window-height="995"
     id="namedview146"
     showgrid="true"
     inkscape:zoom="16"
     inkscape:cx="12.900876"
     inkscape:cy="14.605299"
     inkscape:window-x="0"
     inkscape:window-y="0"
     inkscape:window-maximized="1"
     inkscape:current-layer="svg144"
     showguides="true"><inkscape:grid
       type="xygrid"
       id="grid75" /></sodipodi:namedview><style
     type="text/css"
     id="style2">
	.st0{display:none;}
	.st1{display:inline;}
	.st2{fill:none;stroke:#000000;stroke-width:0.1;stroke-miterlimit:10;}
</style><g
     class="st0"
     id="g132"
     style="display:none"
     transform="translate(0,-110)"><g
       class="st1"
       id="g130"
       style="display:inline"><rect
         class="st2"
         width="128"
         height="128"
         id="rect4"
         x="0"
         y="0"
         style="fill:none;stroke:#000000;stroke-width:0.1;stroke-miterlimit:10" /><line
         class="st2"
         x1="0"
         y1="124"
         x2="128"
         y2="124"
         id="line6"
         style="fill:none;stroke:#000000;stroke-width:0.1;stroke-miterlimit:10" /><line
         class="st2"
         x1="0"
         y1="120"
         x2="128"
         y2="120"
         id="line8"
         style="fill:none;stroke:#000000;stroke-width:0.1;stroke-miterlimit:10" /><line
         class="st2"
         x1="0"
         y1="116"
         x2="128"
         y2="116"
         id="line10"
         style="fill:none;stroke:#000000;stroke-width:0.1;stroke-miterlimit:10" /><line
         class="st2"
         x1="0"
         y1="112"
         x2="128"
         y2="112"
         id="line12"
         style="fill:none;stroke:#000000;stroke-width:0.1;stroke-miterlimit:10" /><line
         class="st2"
         x1="0"
         y1="108"
         x2="128"
         y2="108"
         id="line14"
         style="fill:none;stroke:#000000;stroke-width:0.1;stroke-miterlimit:10" /><line
         class="st2"
         x1="0"
         y1="104"
         x2="128"
         y2="104"
         id="line16"
         style="fill:none;stroke:#000000;stroke-width:0.1;stroke-miterlimit:10" /><line
         class="st2"
         x1="0"
         y1="100"
         x2="128"
         y2="100"
         id="line18"
         style="fill:none;stroke:#000000;stroke-width:0.1;stroke-miterlimit:10" /><line
         class="st2"
         x1="0"
         y1="96"
         x2="128"
         y2="96"
         id="line20"
         style="fill:none;stroke:#000000;stroke-width:0.1;stroke-miterlimit:10" /><line
         class="st2"
         x1="0"
         y1="92"
         x2="128"
         y2="92"
         id="line22"
         style="fill:none;stroke:#000000;stroke-width:0.1;stroke-miterlimit:10" /><line
         class="st2"
         x1="0"
         y1="88"
         x2="128"
         y2="88"
         id="line24"
         style="fill:none;stroke:#000000;stroke-width:0.1;stroke-miterlimit:10" /><line
         class="st2"
         x1="0"
         y1="84"
         x2="128"
         y2="84"
         id="line26"
         style="fill:none;stroke:#000000;stroke-width:0.1;stroke-miterlimit:10" /><line
         class="st2"
         x1="0"
         y1="80"
         x2="128"
         y2="80"
         id="line28"
         style="fill:none;stroke:#000000;stroke-width:0.1;stroke-miterlimit:10" /><line
         class="st2"
         x1="0"
         y1="76"
         x2="128"
         y2="76"
         id="line30"
         style="fill:none;stroke:#000000;stroke-width:0.1;stroke-miterlimit:10" /><line
         class="st2"
         x1="0"
         y1="72"
         x2="128"
         y2="72"
         id="line32"
         style="fill:none;stroke:#000000;stroke-width:0.1;stroke-miterlimit:10" /><line
         class="st2"
         x1="0"
         y1="68"
         x2="128"
         y2="68"
         id="line34"
         style="fill:none;stroke:#000000;stroke-width:0.1;stroke-miterlimit:10" /><line
         class="st2"
         x1="0"
         y1="64"
         x2="128"
         y2="64"
         id="line36"
         style="fill:none;stroke:#000000;stroke-width:0.1;stroke-miterlimit:10" /><line
         class="st2"
         x1="0"
         y1="60"
         x2="128"
         y2="60"
         id="line38"
         style="fill:none;stroke:#000000;stroke-width:0.1;stroke-miterlimit:10" /><line
         class="st2"
         x1="0"
         y1="56"
         x2="128"
         y2="56"
         id="line40"
         style="fill:none;stroke:#000000;stroke-width:0.1;stroke-miterlimit:10" /><line
         class="st2"
         x1="0"
         y1="52"
         x2="128"
         y2="52"
         id="line42"
         style="fill:none;stroke:#000000;stroke-width:0.1;stroke-miterlimit:10" /><line
         class="st2"
         x1="0"
         y1="48"
         x2="128"
         y2="48"
         id="line44"
         style="fill:none;stroke:#000000;stroke-width:0.1;stroke-miterlimit:10" /><line
         class="st2"
         x1="0"
         y1="44"
         x2="128"
         y2="44"
         id="line46"
         style="fill:none;stroke:#000000;stroke-width:0.1;stroke-miterlimit:10" /><line
         class="st2"
         x1="0"
         y1="40"
         x2="128"
         y2="40"
         id="line48"
         style="fill:none;stroke:#000000;stroke-width:0.1;stroke-miterlimit:10" /><line
         class="st2"
         x1="0"
         y1="36"
         x2="128"
         y2="36"
         id="line50"
         style="fill:none;stroke:#000000;stroke-width:0.1;stroke-miterlimit:10" /><line
         class="st2"
         x1="0"
         y1="32"
         x2="128"
         y2="32"
         id="line52"
         style="fill:none;stroke:#000000;stroke-width:0.1;stroke-miterlimit:10" /><line
         class="st2"
         x1="0"
         y1="28"
         x2="128"
         y2="28"
         id="line54"
         style="fill:none;stroke:#000000;stroke-width:0.1;stroke-miterlimit:10" /><line
         class="st2"
         x1="0"
         y1="24"
         x2="128"
         y2="24"
         id="line56"
         style="fill:none;stroke:#000000;stroke-width:0.1;stroke-miterlimit:10" /><line
         class="st2"
         x1="0"
         y1="20"
         x2="128"
         y2="20"
         id="line58"
         style="fill:none;stroke:#000000;stroke-width:0.1;stroke-miterlimit:10" /><line
         class="st2"
         x1="0"
         y1="16"
         x2="128"
         y2="16"
         id="line60"
         style="fill:none;stroke:#000000;stroke-width:0.1;stroke-miterlimit:10" /><line
         class="st2"
         x1="0"
         y1="12"
         x2="128"
         y2="12"
         id="line62"
         style="fill:none;stroke:#000000;stroke-width:0.1;stroke-miterlimit:10" /><line
         class="st2"
         x1="0"
         y1="8"
         x2="128"
         y2="8"
         id="line64"
         style="fill:none;stroke:#000000;stroke-width:0.1;stroke-miterlimit:10" /><line
         class="st2"
         x1="0"
         y1="4"
         x2="128"
         y2="4"
         id="line66"
         style="fill:none;stroke:#000000;stroke-width:0.1;stroke-miterlimit:10" /><line
         class="st2"
         x1="124"
         y1="0"
         x2="124"
         y2="128"
         id="line68"
         style="fill:none;stroke:#000000;stroke-width:0.1;stroke-miterlimit:10" /><line
         class="st2"
         x1="120"
         y1="0"
         x2="120"
         y2="128"
         id="line70"
         style="fill:none;stroke:#000000;stroke-width:0.1;stroke-miterlimit:10" /><line
         class="st2"
         x1="116"
         y1="0"
         x2="116"
         y2="128"
         id="line72"
         style="fill:none;stroke:#000000;stroke-width:0.1;stroke-miterlimit:10" /><line
         class="st2"
         x1="112"
         y1="0"
         x2="112"
         y2="128"
         id="line74"
         style="fill:none;stroke:#000000;stroke-width:0.1;stroke-miterlimit:10" /><line
         class="st2"
         x1="108"
         y1="0"
         x2="108"
         y2="128"
         id="line76"
         style="fill:none;stroke:#000000;stroke-width:0.1;stroke-miterlimit:10" /><line
         class="st2"
         x1="104"
         y1="0"
         x2="104"
         y2="128"
         id="line78"
         style="fill:none;stroke:#000000;stroke-width:0.1;stroke-miterlimit:10" /><line
         class="st2"
         x1="100"
         y1="0"
         x2="100"
         y2="128"
         id="line80"
         style="fill:none;stroke:#000000;stroke-width:0.1;stroke-miterlimit:10" /><line
         class="st2"
         x1="96"
         y1="0"
         x2="96"
         y2="128"
         id="line82"
         style="fill:none;stroke:#000000;stroke-width:0.1;stroke-miterlimit:10" /><line
         class="st2"
         x1="92"
         y1="0"
         x2="92"
         y2="128"
         id="line84"
         style="fill:none;stroke:#000000;stroke-width:0.1;stroke-miterlimit:10" /><line
         class="st2"
         x1="88"
         y1="0"
         x2="88"
         y2="128"
         id="line86"
         style="fill:none;stroke:#000000;stroke-width:0.1;stroke-miterlimit:10" /><line
         class="st2"
         x1="84"
         y1="0"
         x2="84"
         y2="128"
         id="line88"
         style="fill:none;stroke:#000000;stroke-width:0.1;stroke-miterlimit:10" /><line
         class="st2"
         x1="80"
         y1="0"
         x2="80"
         y2="128"
         id="line90"
         style="fill:none;stroke:#000000;stroke-width:0.1;stroke-miterlimit:10" /><line
         class="st2"
         x1="76"
         y1="0"
         x2="76"
         y2="128"
         id="line92"
         style="fill:none;stroke:#000000;stroke-width:0.1;stroke-miterlimit:10" /><line
         class="st2"
         x1="72"
         y1="0"
         x2="72"
         y2="128"
         id="line94"
         style="fill:none;stroke:#000000;stroke-width:0.1;stroke-miterlimit:10" /><line
         class="st2"
         x1="68"
         y1="0"
         x2="68"
         y2="128"
         id="line96"
         style="fill:none;stroke:#000000;stroke-width:0.1;stroke-miterlimit:10" /><line
         class="st2"
         x1="64"
         y1="0"
         x2="64"
         y2="128"
         id="line98"
         style="fill:none;stroke:#000000;stroke-width:0.1;stroke-miterlimit:10" /><line
         class="st2"
         x1="60"
         y1="0"
         x2="60"
         y2="128"
         id="line100"
         style="fill:none;stroke:#000000;stroke-width:0.1;stroke-miterlimit:10" /><line
         class="st2"
         x1="56"
         y1="0"
         x2="56"
         y2="128"
         id="line102"
         style="fill:none;stroke:#000000;stroke-width:0.1;stroke-miterlimit:10" /><line
         class="st2"
         x1="52"
         y1="0"
         x2="52"
         y2="128"
         id="line104"
         style="fill:none;stroke:#000000;stroke-width:0.1;stroke-miterlimit:10" /><line
         class="st2"
         x1="48"
         y1="0"
         x2="48"
         y2="128"
         id="line106"
         style="fill:none;stroke:#000000;stroke-width:0.1;stroke-miterlimit:10" /><line
         class="st2"
         x1="44"
         y1="0"
         x2="44"
         y2="128"
         id="line108"
         style="fill:none;stroke:#000000;stroke-width:0.1;stroke-miterlimit:10" /><line
         class="st2"
         x1="40"
         y1="0"
         x2="40"
         y2="128"
         id="line110"
         style="fill:none;stroke:#000000;stroke-width:0.1;stroke-miterlimit:10" /><line
         class="st2"
         x1="36"
         y1="0"
         x2="36"
         y2="128"
         id="line112"
         style="fill:none;stroke:#000000;stroke-width:0.1;stroke-miterlimit:10" /><line
         class="st2"
         x1="32"
         y1="0"
         x2="32"
         y2="128"
         id="line114"
         style="fill:none;stroke:#000000;stroke-width:0.1;stroke-miterlimit:10" /><line
         class="st2"
         x1="28"
         y1="0"
         x2="28"
         y2="128"
         id="line116"
         style="fill:none;stroke:#000000;stroke-width:0.1;stroke-miterlimit:10" /><line
         class="st2"
         x1="24"
         y1="0"
         x2="24"
         y2="128"
         id="line118"
         style="fill:none;stroke:#000000;stroke-width:0.1;stroke-miterlimit:10" /><line
         class="st2"
         x1="20"
         y1="0"
         x2="20"
         y2="128"
         id="line120"
         style="fill:none;stroke:#000000;stroke-width:0.1;stroke-miterlimit:10" /><line
         class="st2"
         x1="16"
         y1="0"
         x2="16"
         y2="128"
         id="line122"
         style="fill:none;stroke:#000000;stroke-width:0.1;stroke-miterlimit:10" /><line
         class="st2"
         x1="12"
         y1="0"
         x2="12"
         y2="128"
         id="line124"
         style="fill:none;stroke:#000000;stroke-width:0.1;stroke-miterlimit:10" /><line
         class="st2"
         x1="8"
         y1="0"
         x2="8"
         y2="128"
         id="line126"
         style="fill:none;stroke:#000000;stroke-width:0.1;stroke-miterlimit:10" /><line
         class="st2"
         x1="4"
         y1="0"
         x2="4"
         y2="128"
         id="line128"
         style="fill:none;stroke:#000000;stroke-width:0.1;stroke-miterlimit:10" /></g></g><g
     id="g138"
     transform="matrix(0.45421736,0,0,0.41662064,-9.0745837,-1.6335652)"
     style="fill:#f7c02e;fill-opacity:1"><g
       id="g136"
       style="fill:#f7c02e;fill-opacity:1"><path
         d="m 20.2,105.8 c 0.5,3.6 2.5,6 4.6,8.6 3.1,3.8 6.9,6.9 11.4,9.2 0.3,0.2 0.6,0.2 0.9,0.2 h 0.1 v 0 H 91 v 0 0 h 0.4 v 0 c 0.2,0 0.4,-0.1 0.5,-0.2 4.5,-2.4 8.3,-5.5 11.4,-9.2 2.1,-2.5 4,-5 4.6,-8.6 0.8,-5.3 -1.4,-13.3 -7.4,-14.9 -0.6,-5.6 -1,-9.5 -1.1,-11.7 C 99.3,78 99.2,76.7 99,75.5 98.8,74.3 98.6,73 98.4,71.8 98.3,71.2 98.2,70.7 98.1,70.3 V 70.1 C 97,65.3 96.334124,57.625762 97.034124,47.125762 c 0.3,-4.2 -1.207945,-8.301591 -3.807945,-11.101591 -2,-2.1 -4.110811,-3.075828 -7.2,-3.3 H 85.237836 75.018233 v -4.80053 l 3.825011,0.02553 C 80.643209,27.961185 82.1,27.6 83.1,26.4 84,25.3 84.3,24 84,22.7 L 80.5,8 C 80,5.7 77.7,4.1 75.1,4.1 H 53.4 C 50.8,4.1 48.5,5.7 48,8 l -3.2,14.7 c -0.3,1.3 0,2.6 0.9,3.7 1,1.3 2.691466,1.566797 4.4914,1.54995 l 2.810942,-0.02631 v 4.80053 l -11.007946,-10e-7 0.850805,-1e-6 v 0 c -2.5,0.100001 -5.26368,-0.097 -7.455572,1.484765 -4.82663,2.35509 -4.403179,8.663788 -4.403179,12.916827 0.5,8.8 0.206356,13.902121 -1.493644,19.202121 v 0 c -0.2,0.8 -0.407945,3.700531 -0.707945,4.800531 -0.9,3.4 -0.872858,5.646561 -0.972858,6.146561 C 27.012003,81.774975 28.2,87.6 28.5,90.6 h -0.3 c -6.5,1.5 -8.9,9.8 -8,15.2 z m 8.584861,4.98086 c -2.1,-2.5 -3.346382,-3.64873 -3.646382,-6.04873 -0.6,-3.9 0.08422,-7.2008 3.646382,-9.601065 3.043244,0 8.806357,2.790254 11.007946,4.80053 v 19.202125 c -3.405405,-3.63813 -8.407946,-5.25286 -11.007946,-8.35286 z m 55.039728,8.35286 H 44.195985 v -16.80186 -1.68769 -0.712575 h 39.628604 c 0.568904,0 -5.811142,3e-6 0,0 z M 44.195985,68.728148 H 83.824589 V 95.131065 H 44.195985 Z m 59.442905,36.003982 c -0.4,2.4 -2.40318,4.70079 -4.403177,7.20079 -2.4,3 -10.833079,8.85154 -10.846737,7.22277 L 88.227768,99.931595 c 1.5,-3 6.306356,-4.70053 8.806356,-4.80053 h 2.201589 l 0.586417,0.102912 0.2634,-0.102912 v 0 c 4.06269,3.131363 4.15336,5.901065 3.55336,9.601065 z M 88.227768,37.524702 c 1.94049,0.527952 1.666453,0.742182 2.320632,2.331687 1.081198,2.627062 2.282546,6.469638 2.082546,9.669638 -0.7,11.1 -0.53294,16.402387 0.667057,21.602387 v 0 c 0.1,0.3 0.372,2.062794 0.472,2.662794 0.2,1.1 0.2968,1.077527 0.668799,3.115131 0.2,1.1 0.187334,2.210457 0.454799,3.381248 0.466146,2.040492 0.729721,4.850303 1.329721,10.150303 -2.7,0.6 -5.353356,1.993175 -7.253356,4.693175 -0.742198,0 -0.742198,-1.33511 -0.742198,-2.400265 z M 49.046361,23.123111 c -0.279838,0.0129 0.133549,-2.386745 0.133549,-2.386745 L 51.798348,8.7215199 c 0,0 0.303994,0 1.203994,0 h 22.015891 c 0.899999,0.0015 1.810829,-0.1168103 1.889475,0.28882 L 79.10701,20.353556 c 0,0 0.588597,-0.36929 0,0 0,0 0.300108,0.649861 0.317839,0.744337 0.06819,0.363343 0.696563,2.025218 -0.0034,2.025218 z m 8.359159,4.80053 h 13.209535 v 4.80053 H 57.40552 Z m 26.419069,9.601061 V 63.927618 H 44.195985 V 37.524702 Z M 32.5,78.2 c 0.1,-0.5 0.256756,-2.953039 1.156756,-6.153039 0.3,-1.1 0.478379,-1.926519 0.578379,-2.526519 l 0.148648,-0.246961 c 1.7,-5.8 1.605846,-13.4 1.005846,-22.6 -0.2,-3.1 -0.157199,-6.046962 1.742801,-8.046962 0.886,-1.075298 2.660377,-1.101817 2.660377,-1.101817 V 92.7308 95.131065 C 37.892807,92.531065 35.4,91.5 32.6,90.8 32.3,88.3 31.8,82.6 32.5,78.2 Z"
         id="path134"
         inkscape:connector-curvature="0"
         style="fill:#f7c02e;fill-opacity:1"
         sodipodi:nodetypes="cccsccccccccccccssccccccccscccsscccscccccccccccccccccccccccccccccccccccscccsccccccccccscccccccccsscsccccccccccccccccccccccc" /></g></g></svg>